<svg xmlns="http://www.w3.org/2000/svg" viewBox="0 0 512 512">
<polygon fill="rgb(50,50,50)" points="77.0,420.5 74.5,420.0 72.0,419.5 70.5,418.0 69.0,416.5 67.5,415.0 66.5,413.0 65.0,411.5 63.5,410.0 62.5,408.0 61.0,406.5 59.5,405.0 58.5,403.0 57.5,401.0 56.0,399.5 54.5,398.0 53.5,396.0 52.5,394.0 51.0,392.5 50.0,390.5 49.0,388.5 47.5,387.0 46.5,385.0 45.5,383.0 44.5,381.0 43.5,379.0 42.5,377.0 41.5,375.0 40.5,373.0 39.5,371.0 38.5,369.0 37.5,367.0 36.5,365.0 35.5,363.0 34.5,361.0 33.5,359.0 32.5,357.0 31.5,355.0 31.0,352.5 30.0,350.5 29.5,348.0 28.5,346.0 27.5,344.0 27.0,341.5 26.5,339.0 25.5,337.0 24.5,335.0 24.5,332.0 23.5,330.0 23.0,327.5 22.5,325.0 21.5,323.0 21.5,320.0 20.5,318.0 20.5,315.0 19.5,313.0 19.5,310.0 18.5,308.0 18.5,305.0 18.0,302.5 17.5,300.0 17.5,297.0 17.0,294.5 16.5,292.0 16.5,289.0 16.5,286.0 16.5,283.0 15.5,281.0 15.5,278.0 15.5,275.0 15.5,272.0 15.5,269.0 15.5,266.0 15.5,263.0 16.5,261.0 16.5,258.0 16.5,255.0 16.5,252.0 16.5,249.0 17.5,247.0 17.5,244.0 17.5,241.0 18.5,239.0 18.5,236.0 19.0,233.5 19.5,231.0 19.5,228.0 20.5,226.0 21.0,223.5 21.5,221.0 22.0,218.5 22.5,216.0 23.5,214.0 24.0,211.5 24.5,209.0 25.5,207.0 26.0,204.5 26.5,202.0 27.5,200.0 28.5,198.0 29.0,195.5 29.5,193.0 30.5,191.0 31.5,189.0 32.5,187.0 33.5,185.0 34.0,182.5 35.0,180.5 36.0,178.5 37.0,176.5 38.0,174.5 39.0,172.5 40.0,170.5 41.0,168.5 42.0,166.5 43.0,164.5 44.0,162.5 45.0,160.5 46.5,159.0 47.5,157.0 48.5,155.0 49.5,153.0 50.5,151.0 52.0,149.5 53.0,147.5 54.5,146.0 55.5,144.0 56.5,142.0 58.0,140.5 59.5,139.0 60.5,137.0 62.0,135.5 63.0,133.5 64.5,132.0 66.0,130.5 67.0,128.5 68.5,127.0 70.0,125.5 71.5,124.0 72.5,122.0 74.0,120.5 75.5,119.0 77.0,117.5 78.5,116.0 80.0,114.5 81.5,113.0 83.0,111.5 84.5,110.0 86.0,108.5 87.5,107.0 89.0,105.5 91.0,104.5 92.5,103.0 94.0,101.5 95.5,100.0 97.0,98.5 99.0,97.5 100.5,96.0 102.0,94.5 104.0,93.5 105.5,92.0 107.5,91.0 109.0,89.5 111.0,88.5 112.5,87.0 114.5,86.0 116.0,84.5 118.0,83.5 120.0,82.5 122.0,81.5 123.5,80.0 125.5,79.0 127.5,78.0 129.0,76.5 131.0,75.5 133.0,74.5 135.0,73.5 137.0,72.5 139.0,71.5 141.0,70.5 143.0,69.5 145.0,68.5 147.0,67.5 149.0,66.5 151.5,66.0 153.5,65.0 155.5,64.0 158.0,63.5 160.0,62.5 162.0,61.5 164.0,60.5 166.5,60.0 169.0,59.5 171.0,58.5 173.0,57.5 175.5,57.0 178.0,56.5 180.0,55.5 183.0,55.5 185.0,54.5 187.5,54.0 190.0,53.5 192.0,52.5 195.0,52.5 197.0,51.5 200.0,51.5 202.0,50.5 205.0,50.5 208.0,50.5 210.0,49.5 213.0,49.5 216.0,49.5 218.0,48.5 221.0,48.5 224.0,48.5 227.0,48.5 230.0,48.5 231.5,47.0 231.5,44.0 231.5,41.0 231.5,38.0 231.5,35.0 231.5,32.0 231.5,29.0 231.5,26.0 231.5,23.0 232.5,21.0 233.5,19.0 235.0,17.5 237.0,16.5 239.0,15.5 242.0,15.5 245.0,15.5 248.0,15.5 250.5,16.0 253.0,16.5 256.0,16.5 259.0,16.5 262.0,16.5 264.5,17.0 267.0,17.5 270.0,17.5 273.0,17.5 275.0,18.5 278.0,18.5 280.5,19.0 283.0,19.5 286.0,19.5 288.0,20.5 291.0,20.5 293.0,21.5 295.5,22.0 298.0,22.5 300.5,23.0 303.0,23.5 305.0,24.5 307.5,25.0 310.0,25.5 312.0,26.5 314.5,27.0 317.0,27.5 319.0,28.5 321.5,29.0 323.5,30.0 326.0,30.5 328.0,31.5 330.0,32.5 332.0,33.5 334.5,34.0 337.0,34.5 339.0,35.5 341.0,36.5 343.0,37.5 345.0,38.5 347.0,39.5 349.0,40.5 351.0,41.5 353.0,42.5 355.0,43.5 357.0,44.5 359.0,45.5 361.0,46.5 363.0,47.5 365.0,48.5 367.0,49.5 369.0,50.5 370.5,52.0 372.5,53.0 374.5,54.0 376.0,55.5 378.0,56.5 380.0,55.5 381.5,54.0 383.5,53.0 386.0,52.5 388.0,51.5 390.0,50.5 392.0,49.5 395.0,49.5 397.0,48.5 400.0,48.5 402.5,48.0 405.0,47.5 408.0,47.5 411.0,47.5 413.0,48.5 416.0,48.5 419.0,48.5 421.0,49.5 423.5,50.0 426.0,50.5 428.0,51.5 430.0,52.5 432.0,53.5 434.0,54.5 436.0,55.5 438.0,56.5 439.5,58.0 441.5,59.0 443.0,60.5 444.5,62.0 446.0,63.5 447.5,65.0 449.0,66.5 450.5,68.0 451.5,70.0 453.0,71.5 454.5,73.0 455.5,75.0 456.5,77.0 457.5,79.0 458.5,81.0 459.5,83.0 460.5,85.0 461.0,87.5 461.5,90.0 462.5,92.0 462.5,95.0 462.5,98.0 463.5,100.0 463.5,103.0 463.5,106.0 463.0,108.5 462.5,111.0 462.5,114.0 461.5,116.0 461.5,119.0 460.5,121.0 459.5,123.0 458.5,125.0 458.0,127.5 457.0,129.5 455.5,131.0 454.5,133.0 455.5,135.0 457.0,136.5 458.0,138.5 459.0,140.5 460.5,142.0 461.5,144.0 462.5,146.0 463.5,148.0 464.5,150.0 465.5,152.0 466.5,154.0 467.5,156.0 468.5,158.0 469.5,160.0 470.5,162.0 471.5,164.0 472.5,166.0 472.5,169.0 472.5,172.0 471.0,173.5 469.5,175.0 467.5,176.0 465.0,176.5 462.5,176.0 460.5,175.0 459.0,173.5 458.0,171.5 457.0,169.5 456.0,167.5 455.0,165.5 454.0,163.5 453.0,161.5 452.0,159.5 451.0,157.5 450.0,155.5 449.0,153.5 448.0,151.5 446.5,150.0 445.5,148.0 444.5,146.0 443.5,144.0 442.5,142.0 441.0,140.5 440.0,138.5 438.5,137.0 437.5,135.0 437.5,132.0 438.5,130.0 439.5,128.0 441.0,126.5 442.0,124.5 443.0,122.5 444.0,120.5 445.0,118.5 445.5,116.0 446.5,114.0 447.0,111.5 447.5,109.0 447.5,106.0 447.5,103.0 447.5,100.0 447.5,97.0 447.0,94.5 446.5,92.0 445.5,90.0 444.5,88.0 443.5,86.0 442.5,84.0 441.5,82.0 440.5,80.0 439.0,78.5 437.5,77.0 436.5,75.0 435.0,73.5 433.0,72.5 431.5,71.0 430.0,69.5 428.0,68.5 426.0,67.5 424.0,66.5 422.0,65.5 419.5,65.0 417.0,64.5 415.0,63.5 412.0,63.5 409.0,63.5 406.0,63.5 403.0,63.5 400.0,63.5 398.0,64.5 395.5,65.0 393.0,65.5 391.0,66.5 389.0,67.5 387.0,68.5 385.0,69.5 383.5,71.0 382.0,72.5 379.5,73.0 377.0,73.5 375.0,72.5 373.0,71.5 371.0,70.5 369.5,69.0 367.5,68.0 366.0,66.5 364.0,65.5 362.0,64.5 360.0,63.5 358.0,62.5 356.0,61.5 354.0,60.5 352.5,59.0 350.5,58.0 348.5,57.0 346.5,56.0 344.5,55.0 342.5,54.0 340.0,53.5 338.0,52.5 336.0,51.5 334.0,50.5 332.0,49.5 330.0,48.5 328.0,47.5 325.5,47.0 323.5,46.0 321.0,45.5 319.0,44.5 317.0,43.5 314.5,43.0 312.0,42.5 310.0,41.5 308.0,40.5 305.0,40.5 303.0,39.5 300.5,39.0 298.0,38.5 296.0,37.5 293.0,37.5 291.0,36.5 288.5,36.0 286.0,35.5 283.0,35.5 281.0,34.5 278.0,34.5 276.0,33.5 273.0,33.5 270.0,33.5 268.0,32.5 265.0,32.5 262.0,32.5 260.0,31.5 257.0,31.5 254.0,31.5 251.0,31.5 248.0,31.5 247.5,34.0 247.5,37.0 247.5,40.0 247.5,43.0 247.5,46.0 247.5,49.0 247.5,52.0 247.5,55.0 247.5,58.0 247.5,61.0 247.5,64.0 247.5,67.0 247.5,70.0 247.5,73.0 247.5,76.0 247.5,79.0 247.5,82.0 247.5,85.0 247.5,88.0 247.5,91.0 247.5,94.0 247.5,97.0 247.5,100.0 247.5,103.0 247.5,106.0 247.5,109.0 247.5,112.0 250.0,112.5 253.0,112.5 256.0,112.5 258.0,113.5 261.0,113.5 264.0,113.5 266.0,114.5 269.0,114.5 271.0,115.5 274.0,115.5 276.0,116.5 279.0,116.5 281.0,117.5 283.0,118.5 286.0,118.5 288.0,119.5 290.0,120.5 292.5,121.0 294.0,122.5 295.5,124.0 296.5,126.0 296.5,129.0 296.0,131.5 294.5,133.0 293.0,134.5 291.0,135.5 288.0,135.5 286.0,134.5 283.5,134.0 281.0,133.5 279.0,132.5 276.5,132.0 274.0,131.5 272.0,130.5 269.0,130.5 267.0,129.5 264.0,129.5 262.0,128.5 259.0,128.5 256.0,128.5 254.0,127.5 251.0,127.5 248.0,127.5 245.0,127.5 242.0,127.5 239.0,127.5 237.0,126.5 235.0,125.5 233.5,124.0 232.5,122.0 231.5,120.0 231.5,117.0 231.5,114.0 231.5,111.0 231.5,108.0 231.5,105.0 231.5,102.0 231.5,99.0 231.5,96.0 231.5,93.0 231.5,90.0 231.5,87.0 231.5,84.0 231.5,81.0 231.5,78.0 231.5,75.0 231.5,72.0 231.5,69.0 231.5,66.0 231.0,63.5 228.0,63.5 225.0,63.5 222.0,63.5 220.0,64.5 217.0,64.5 214.0,64.5 211.5,65.0 209.0,65.5 206.0,65.5 204.0,66.5 201.0,66.5 199.0,67.5 196.0,67.5 194.0,68.5 191.0,68.5 189.0,69.5 186.5,70.0 184.0,70.5 182.0,71.5 179.5,72.0 177.0,72.5 175.0,73.5 173.0,74.5 170.5,75.0 168.0,75.5 166.0,76.5 164.0,77.5 162.0,78.5 159.5,79.0 157.5,80.0 155.5,81.0 153.0,81.5 151.0,82.5 149.0,83.5 147.0,84.5 145.0,85.5 143.0,86.5 141.0,87.5 139.5,89.0 137.5,90.0 135.5,91.0 133.5,92.0 132.0,93.5 130.0,94.5 128.0,95.5 126.0,96.5 124.5,98.0 122.5,99.0 121.0,100.5 119.0,101.5 117.5,103.0 115.5,104.0 114.0,105.5 112.0,106.5 110.5,108.0 109.0,109.5 107.0,110.5 105.5,112.0 104.0,113.5 102.5,115.0 100.5,116.0 99.0,117.5 97.5,119.0 96.0,120.5 94.5,122.0 93.0,123.5 91.5,125.0 90.0,126.5 88.5,128.0 87.0,129.5 85.5,131.0 84.0,132.5 82.5,134.0 81.5,136.0 80.0,137.5 78.5,139.0 77.5,141.0 76.0,142.5 74.5,144.0 73.5,146.0 72.0,147.5 71.0,149.5 69.5,151.0 68.5,153.0 67.0,154.5 66.0,156.5 64.5,158.0 63.5,160.0 62.5,162.0 61.5,164.0 60.0,165.5 59.0,167.5 58.0,169.5 57.0,171.5 55.5,173.0 54.5,175.0 53.5,177.0 52.5,179.0 51.5,181.0 50.5,183.0 49.5,185.0 49.0,187.5 48.0,189.5 47.0,191.5 46.5,194.0 45.5,196.0 44.5,198.0 43.5,200.0 43.0,202.5 42.5,205.0 41.5,207.0 40.5,209.0 40.0,211.5 39.5,214.0 38.5,216.0 38.0,218.5 37.5,221.0 36.5,223.0 36.5,226.0 35.5,228.0 35.5,231.0 34.5,233.0 34.5,236.0 33.5,238.0 33.5,241.0 33.0,243.5 32.5,246.0 32.5,249.0 32.5,252.0 31.5,254.0 31.5,257.0 31.5,260.0 31.5,263.0 31.5,266.0 31.5,269.0 31.5,272.0 31.5,275.0 31.5,278.0 31.5,281.0 31.5,284.0 31.5,287.0 31.5,290.0 32.5,292.0 32.5,295.0 32.5,298.0 33.5,300.0 33.5,303.0 34.0,305.5 34.5,308.0 34.5,311.0 35.5,313.0 35.5,316.0 36.5,318.0 37.0,320.5 37.5,323.0 38.5,325.0 38.5,328.0 39.5,330.0 40.5,332.0 41.0,334.5 41.5,337.0 42.5,339.0 43.5,341.0 44.0,343.5 44.5,346.0 45.5,348.0 46.5,350.0 47.5,352.0 48.5,354.0 49.5,356.0 50.0,358.5 51.0,360.5 52.0,362.5 53.0,364.5 54.0,366.5 55.0,368.5 56.0,370.5 57.5,372.0 58.5,374.0 59.5,376.0 60.5,378.0 61.5,380.0 62.5,382.0 64.0,383.5 65.0,385.5 66.5,387.0 67.5,389.0 68.5,391.0 70.0,392.5 71.0,394.5 72.5,396.0 73.5,398.0 75.0,399.5 76.5,401.0 77.5,403.0 79.0,404.5 80.5,406.0 82.0,407.5 83.0,409.5 83.5,412.0 83.5,415.0 82.0,416.5 81.0,418.5 79.0,419.5 77.0,420.5"/>
<polygon fill="rgb(50,50,50)" points="296.0,103.5 293.5,103.0 291.0,102.5 288.5,102.0 286.0,101.5 284.0,100.5 282.5,99.0 280.5,98.0 279.0,96.5 277.5,95.0 276.5,93.0 275.0,91.5 274.0,89.5 273.5,87.0 272.5,85.0 272.5,82.0 271.5,80.0 272.0,77.5 272.5,75.0 273.0,72.5 273.5,70.0 274.5,68.0 276.0,66.5 277.0,64.5 278.5,63.0 280.0,61.5 282.0,60.5 283.5,59.0 285.5,58.0 288.0,57.5 290.0,56.5 293.0,56.5 295.0,55.5 297.0,56.5 300.0,56.5 302.5,57.0 305.0,57.5 306.5,59.0 308.5,60.0 310.0,61.5 312.0,62.5 313.5,64.0 314.5,66.0 316.0,67.5 317.0,69.5 317.5,72.0 318.5,74.0 318.5,77.0 319.0,79.5 318.5,81.0 318.5,84.0 318.0,86.5 317.0,88.5 316.5,91.0 315.0,92.5 313.5,94.0 312.5,96.0 311.0,97.5 309.0,98.5 307.5,100.0 305.5,101.0 303.0,101.5 301.0,102.5 298.0,102.5 296.0,103.5"/>
<polygon fill="rgb(50,50,50)" points="299.5,87.0 301.0,85.5 302.5,84.0 303.5,82.0 303.5,79.0 303.5,76.0 302.0,74.5 300.5,73.0 299.0,71.5 296.0,71.5 293.0,71.5 291.0,72.5 289.5,74.0 288.0,75.5 287.5,78.0 287.5,81.0 288.0,83.5 289.5,85.0 291.0,86.5 293.0,87.5 296.0,87.5 299.0,87.5"/>
<polygon fill="rgb(50,50,50)" points="408.0,127.5 406.0,126.5 403.0,126.5 400.5,126.0 398.0,125.5 396.5,124.0 394.5,123.0 393.0,121.5 391.0,120.5 389.5,119.0 388.5,117.0 387.0,115.5 386.0,113.5 385.5,111.0 384.5,109.0 384.5,106.0 383.5,104.0 384.0,101.5 384.5,99.0 385.0,96.5 386.0,94.5 386.5,92.0 388.0,90.5 389.0,88.5 390.5,87.0 392.0,85.5 394.0,84.5 395.5,83.0 397.5,82.0 400.0,81.5 402.0,80.5 405.0,80.5 407.0,79.5 409.0,80.5 412.0,80.5 414.5,81.0 417.0,81.5 419.0,82.5 420.5,84.0 422.5,85.0 424.0,86.5 425.5,88.0 426.5,90.0 427.5,92.0 429.0,93.5 429.5,96.0 430.5,98.0 430.5,101.0 431.5,103.0 430.5,105.0 430.5,108.0 430.0,110.5 429.5,113.0 428.5,115.0 427.0,116.5 426.0,118.5 424.5,120.0 423.0,121.5 421.0,122.5 419.5,124.0 417.5,125.0 415.0,125.5 413.0,126.5 410.0,126.5 408.0,127.5"/>
<polygon fill="rgb(50,50,50)" points="169.0,109.5 167.0,108.5 165.0,107.5 163.5,106.0 162.0,104.5 161.5,102.0 161.5,99.0 163.0,97.5 164.0,95.5 166.0,94.5 168.5,94.0 170.0,94.5 172.5,95.0 174.5,96.0 175.5,98.0 176.5,100.0 176.5,103.0 175.5,105.0 174.5,107.0 172.5,108.0 170.0,108.5"/>
<polygon fill="rgb(50,50,50)" points="410.5,111.0 412.5,110.0 414.0,108.5 415.0,106.5 415.5,104.0 415.5,101.0 414.5,99.0 413.0,97.5 411.0,96.5 409.0,95.5 406.0,95.5 404.0,96.5 402.0,97.5 400.5,99.0 399.5,101.0 399.5,104.0 400.0,106.5 401.0,108.5 402.5,110.0 404.5,111.0 407.0,111.5 410.0,111.5"/>
<polygon fill="rgb(50,50,50)" points="410.0,184.5 407.0,184.5 404.0,184.5 402.0,183.5 400.5,182.0 399.5,180.0 398.5,178.0 397.5,176.0 396.0,174.5 395.0,172.5 394.0,170.5 392.5,169.0 391.5,167.0 390.5,165.0 389.0,163.5 387.5,162.0 386.5,160.0 385.0,158.5 383.5,157.0 382.5,155.0 381.0,153.5 379.5,152.0 378.5,150.0 377.0,148.5 375.5,147.0 374.0,145.5 372.5,144.0 371.0,142.5 369.5,141.0 368.0,139.5 366.5,138.0 365.0,136.5 363.5,135.0 362.0,133.5 360.5,132.0 358.5,131.0 357.0,129.5 355.5,128.0 353.5,127.0 352.0,125.5 350.5,124.0 348.5,123.0 347.0,121.5 345.0,120.5 343.5,119.0 341.5,118.0 340.0,116.5 338.0,115.5 336.0,114.5 334.0,113.5 332.5,112.0 330.5,111.0 329.5,109.0 328.5,107.0 328.5,104.0 329.5,102.0 330.5,100.0 332.0,98.5 334.5,98.0 337.0,97.5 339.0,98.5 341.0,99.5 343.0,100.5 344.5,102.0 346.5,103.0 348.0,104.5 350.0,105.5 352.0,106.5 353.5,108.0 355.5,109.0 357.0,110.5 359.0,111.5 360.5,113.0 362.0,114.5 364.0,115.5 365.5,117.0 367.0,118.5 369.0,119.5 370.5,121.0 372.0,122.5 373.5,124.0 375.0,125.5 377.0,126.5 378.5,128.0 380.0,129.5 381.5,131.0 383.0,132.5 384.5,134.0 385.5,136.0 387.0,137.5 388.5,139.0 390.0,140.5 391.5,142.0 392.5,144.0 394.0,145.5 395.5,147.0 396.5,149.0 398.0,150.5 399.5,152.0 400.5,154.0 402.0,155.5 403.0,157.5 404.5,159.0 405.5,161.0 406.5,163.0 408.0,164.5 409.0,166.5 410.5,168.0 411.5,170.0 412.5,172.0 413.5,174.0 414.5,176.0 414.5,179.0 413.5,181.0 412.0,182.5 410.5,184.0"/>
<polygon fill="rgb(50,50,50)" points="184.0,138.5 181.0,138.5 178.5,138.0 176.5,137.0 175.0,135.5 174.5,133.0 173.5,131.0 174.5,129.0 175.0,126.5 176.5,125.0 178.5,124.0 181.0,123.5 184.0,123.5 185.5,125.0 187.0,126.5 188.5,128.0 188.5,131.0 188.5,134.0 187.5,136.0 185.5,137.0 184.0,138.5"/>
<polygon fill="rgb(50,50,50)" points="113.0,148.5 110.0,148.5 107.0,148.5 105.0,147.5 103.5,146.0 102.5,144.0 101.5,142.0 102.0,139.5 103.0,137.5 104.5,136.0 106.0,134.5 108.0,133.5 110.5,134.0 113.0,134.5 114.5,136.0 116.0,137.5 116.5,140.0 116.5,143.0 116.0,145.5 114.5,147.0 113.0,148.5"/>
<polygon fill="rgb(50,50,50)" points="489.0,279.5 486.0,279.5 483.0,279.5 480.0,279.5 477.0,279.5 474.0,279.5 471.0,279.5 468.0,279.5 465.0,279.5 462.0,279.5 459.0,279.5 456.0,279.5 453.0,279.5 450.0,279.5 447.0,279.5 444.0,279.5 441.0,279.5 438.0,279.5 435.0,279.5 432.0,279.5 429.0,279.5 426.0,279.5 423.0,279.5 420.0,279.5 417.0,279.5 414.0,279.5 411.0,279.5 408.0,279.5 405.0,279.5 402.0,279.5 399.0,279.5 396.0,279.5 393.0,279.5 390.5,279.0 388.0,278.5 386.5,277.0 385.0,275.5 384.5,273.0 383.5,271.0 383.5,268.0 383.5,265.0 383.5,262.0 383.5,259.0 383.5,256.0 382.5,254.0 382.5,251.0 382.0,248.5 381.5,246.0 381.5,243.0 380.5,241.0 380.5,238.0 379.5,236.0 379.0,233.5 378.5,231.0 377.5,229.0 376.5,227.0 376.0,224.5 375.5,222.0 374.5,220.0 373.5,218.0 372.5,216.0 371.5,214.0 371.0,211.5 370.0,209.5 369.0,207.5 368.0,205.5 367.0,203.5 366.0,201.5 365.0,199.5 363.5,198.0 362.5,196.0 361.5,194.0 360.5,192.0 359.0,190.5 358.0,188.5 356.5,187.0 355.5,185.0 354.0,183.5 352.5,182.0 351.5,180.0 350.0,178.5 348.5,177.0 347.0,175.5 345.5,174.0 344.5,172.0 343.0,170.5 341.5,169.0 340.0,167.5 338.5,166.0 336.5,165.0 335.0,163.5 333.5,162.0 332.0,160.5 330.0,159.5 328.5,158.0 327.0,156.5 325.0,155.5 323.5,154.0 321.5,153.0 320.0,151.5 318.0,150.5 316.0,149.5 314.5,148.0 312.5,147.0 311.5,145.0 310.5,143.0 310.5,140.0 311.5,138.0 313.0,136.5 314.5,135.0 317.0,134.5 320.0,134.5 322.0,135.5 324.0,136.5 326.0,137.5 328.0,138.5 329.5,140.0 331.5,141.0 333.0,142.5 335.0,143.5 336.5,145.0 338.0,146.5 340.0,147.5 341.5,149.0 343.0,150.5 345.0,151.5 346.5,153.0 348.0,154.5 349.5,156.0 351.0,157.5 352.5,159.0 354.0,160.5 355.5,162.0 357.0,163.5 358.5,165.0 360.0,166.5 361.0,168.5 362.5,170.0 364.0,171.5 365.5,173.0 366.5,175.0 368.0,176.5 369.0,178.5 370.5,180.0 371.5,182.0 372.5,184.0 374.0,185.5 375.0,187.5 376.5,189.0 377.5,191.0 378.5,193.0 379.5,195.0 380.5,197.0 381.5,199.0 382.5,201.0 383.5,203.0 384.5,205.0 385.5,207.0 386.5,209.0 387.5,211.0 388.5,213.0 389.0,215.5 389.5,218.0 390.5,220.0 391.5,222.0 392.0,224.5 392.5,227.0 393.5,229.0 394.0,231.5 394.5,234.0 395.5,236.0 395.5,239.0 396.5,241.0 396.5,244.0 397.5,246.0 397.5,249.0 397.5,252.0 398.5,254.0 398.5,257.0 398.5,260.0 398.5,263.0 401.0,263.5 404.0,263.5 407.0,263.5 410.0,263.5 413.0,263.5 416.0,263.5 419.0,263.5 422.0,263.5 425.0,263.5 428.0,263.5 431.0,263.5 434.0,263.5 437.0,263.5 440.0,263.5 443.0,263.5 446.0,263.5 449.0,263.5 452.0,263.5 455.0,263.5 458.0,263.5 461.0,263.5 464.0,263.5 467.0,263.5 470.0,263.5 473.0,263.5 476.0,263.5 479.0,263.5 479.5,261.0 479.5,258.0 479.5,255.0 479.5,252.0 478.5,250.0 478.5,247.0 478.5,244.0 478.0,241.5 477.5,239.0 477.5,236.0 476.5,234.0 476.5,231.0 476.0,228.5 475.5,226.0 475.5,223.0 474.5,221.0 474.0,218.5 473.5,216.0 472.5,214.0 472.5,211.0 471.5,209.0 471.0,206.5 470.5,204.0 469.5,202.0 469.5,199.0 469.5,196.0 470.5,194.0 472.0,192.5 474.0,191.5 476.0,190.5 478.5,191.0 480.5,192.0 482.5,193.0 483.5,195.0 484.5,197.0 485.0,199.5 485.5,202.0 486.5,204.0 487.0,206.5 487.5,209.0 488.0,211.5 488.5,214.0 489.5,216.0 489.5,219.0 490.5,221.0 490.5,224.0 491.5,226.0 491.5,229.0 492.5,231.0 492.5,234.0 492.5,237.0 493.5,239.0 493.5,242.0 493.5,245.0 494.5,247.0 494.5,250.0 494.5,253.0 494.5,256.0 494.5,259.0 495.5,261.0 495.5,264.0 495.5,267.0 495.5,270.0 495.5,273.0 494.5,275.0 493.0,276.5 491.5,278.0 489.5,279.0"/>
<polygon fill="rgb(50,50,50)" points="243.0,399.5 240.0,399.5 237.0,399.5 235.0,398.5 232.0,398.5 229.0,398.5 226.0,398.5 223.0,398.5 221.0,397.5 218.0,397.5 216.0,396.5 213.0,396.5 211.0,395.5 208.0,395.5 206.0,394.5 203.5,394.0 201.0,393.5 199.0,392.5 197.0,391.5 194.5,391.0 192.5,390.0 190.0,389.5 188.0,388.5 186.0,387.5 184.0,386.5 182.0,385.5 180.0,384.5 178.0,383.5 176.0,382.5 174.5,381.0 172.5,380.0 170.5,379.0 169.0,377.5 167.0,376.5 165.0,375.5 163.5,374.0 162.0,372.5 160.0,371.5 158.5,370.0 157.0,368.5 155.0,367.5 153.5,366.0 152.0,364.5 150.5,363.0 149.0,361.5 147.5,360.0 146.0,358.5 144.5,357.0 143.5,355.0 142.0,353.5 140.5,352.0 139.0,350.5 138.0,348.5 136.5,347.0 135.5,345.0 134.0,343.5 133.0,341.5 131.5,340.0 130.5,338.0 129.5,336.0 128.5,334.0 127.5,332.0 126.5,330.0 125.5,328.0 124.5,326.0 123.5,324.0 122.5,322.0 121.5,320.0 120.5,318.0 119.5,316.0 119.0,313.5 118.5,311.0 117.5,309.0 116.5,307.0 116.5,304.0 115.5,302.0 115.0,299.5 114.5,297.0 114.0,294.5 113.5,292.0 113.5,289.0 112.5,287.0 112.5,284.0 112.5,281.0 112.5,278.0 112.0,275.5 111.5,273.0 111.5,270.0 112.0,267.5 112.5,265.0 112.5,262.0 112.5,259.0 112.5,256.0 113.5,254.0 113.5,251.0 114.0,248.5 114.5,246.0 115.0,243.5 115.5,241.0 116.5,239.0 116.5,236.0 117.5,234.0 118.5,232.0 119.0,229.5 119.5,227.0 120.5,225.0 121.5,223.0 122.5,221.0 123.5,219.0 124.5,217.0 125.5,215.0 126.5,213.0 127.5,211.0 128.5,209.0 129.5,207.0 130.5,205.0 131.5,203.0 133.0,201.5 134.0,199.5 135.5,198.0 136.5,196.0 138.0,194.5 139.5,193.0 141.0,191.5 144.0,191.5 147.0,191.5 149.0,192.5 150.5,194.0 151.5,196.0 151.5,199.0 151.5,202.0 150.0,203.5 149.0,205.5 147.5,207.0 146.5,209.0 145.5,211.0 144.0,212.5 143.0,214.5 141.5,216.0 140.5,218.0 139.5,220.0 138.5,222.0 137.5,224.0 136.5,226.0 136.0,228.5 135.0,230.5 134.5,233.0 133.5,235.0 132.5,237.0 132.0,239.5 131.5,242.0 130.5,244.0 130.0,246.5 129.5,249.0 129.0,251.5 128.5,254.0 128.5,257.0 127.5,259.0 127.5,262.0 127.5,265.0 127.5,268.0 127.5,271.0 127.5,274.0 127.5,277.0 127.5,280.0 127.5,283.0 128.5,285.0 128.5,288.0 128.5,291.0 129.5,293.0 129.5,296.0 130.5,298.0 131.0,300.5 131.5,303.0 132.5,305.0 133.0,307.5 134.0,309.5 134.5,312.0 135.5,314.0 136.5,316.0 137.5,318.0 138.5,320.0 139.5,322.0 140.5,324.0 141.5,326.0 142.5,328.0 143.5,330.0 144.5,332.0 146.0,333.5 147.0,335.5 148.5,337.0 149.5,339.0 151.0,340.5 152.5,342.0 153.5,344.0 155.0,345.5 156.5,347.0 158.0,348.5 159.5,350.0 161.0,351.5 162.5,353.0 164.0,354.5 165.5,356.0 167.0,357.5 169.0,358.5 170.5,360.0 172.0,361.5 174.0,362.5 175.5,364.0 177.5,365.0 179.0,366.5 181.0,367.5 183.0,368.5 185.0,369.5 187.0,370.5 189.0,371.5 191.0,372.5 193.0,373.5 195.0,374.5 197.0,375.5 199.0,376.5 201.5,377.0 203.5,378.0 206.0,378.5 208.0,379.5 210.5,380.0 213.0,380.5 215.0,381.5 218.0,381.5 220.0,382.5 223.0,382.5 226.0,382.5 228.0,383.5 231.0,383.5 234.0,383.5 237.0,383.5 240.0,383.5 243.0,383.5 246.0,383.5 249.0,383.5 252.0,383.5 254.0,382.5 257.0,382.5 259.5,382.0 262.0,381.5 264.5,381.0 267.0,380.5 269.0,379.5 271.5,379.0 274.0,378.5 276.0,377.5 278.0,376.5 280.5,376.0 282.5,375.0 285.0,374.5 287.0,373.5 289.0,372.5 291.0,371.5 293.0,370.5 295.0,369.5 296.5,368.0 298.5,367.0 300.5,366.0 302.0,364.5 304.0,363.5 305.5,362.0 307.5,361.0 309.0,359.5 311.0,358.5 312.5,357.0 314.0,355.5 315.5,354.0 317.0,352.5 318.5,351.0 320.0,349.5 321.5,348.0 323.0,346.5 324.5,345.0 326.0,343.5 327.0,341.5 328.5,340.0 329.5,338.0 331.0,336.5 332.5,335.0 333.5,333.0 334.5,331.0 335.5,329.0 337.0,327.5 338.0,325.5 339.0,323.5 340.0,321.5 341.0,319.5 342.0,317.5 342.5,315.0 343.5,313.0 344.5,311.0 345.5,309.0 346.0,306.5 346.5,304.0 347.5,302.0 348.5,300.0 348.5,297.0 349.5,295.0 349.5,292.0 350.5,290.0 350.5,287.0 351.0,284.5 351.5,282.0 351.5,279.0 351.5,276.0 351.5,273.0 351.5,270.0 351.5,267.0 351.5,264.0 351.5,261.0 351.0,258.5 350.5,256.0 350.5,253.0 349.5,251.0 349.5,248.0 348.5,246.0 348.5,243.0 347.5,241.0 346.5,239.0 346.5,236.0 345.5,234.0 344.5,232.0 343.5,230.0 343.0,227.5 342.0,225.5 341.0,223.5 340.0,221.5 339.0,219.5 338.0,217.5 337.0,215.5 335.5,214.0 334.5,212.0 333.5,210.0 332.5,208.0 331.0,206.5 329.5,205.0 328.5,203.0 327.0,201.5 326.0,199.5 324.5,198.0 323.0,196.5 321.5,195.0 320.0,193.5 318.5,192.0 317.0,190.5 315.5,189.0 314.0,187.5 312.5,186.0 310.5,185.0 309.0,183.5 307.5,182.0 305.5,181.0 304.0,179.5 302.0,178.5 300.5,177.0 298.5,176.0 296.5,175.0 295.0,173.5 293.0,172.5 291.0,171.5 289.0,170.5 287.0,169.5 285.0,168.5 282.5,168.0 280.5,167.0 278.0,166.5 276.0,165.5 274.0,164.5 271.5,164.0 269.0,163.5 267.0,162.5 264.5,162.0 262.0,161.5 259.5,161.0 257.0,160.5 254.0,160.5 252.0,159.5 249.0,159.5 246.0,159.5 243.0,159.5 240.0,159.5 237.0,159.5 234.0,159.5 231.0,159.5 228.0,159.5 225.5,160.0 223.0,160.5 220.0,160.5 218.0,161.5 215.0,161.5 213.0,162.5 210.5,163.0 208.0,163.5 206.0,164.5 203.5,165.0 201.5,166.0 199.0,166.5 197.0,167.5 195.0,168.5 193.0,169.5 191.0,170.5 189.0,171.5 187.0,172.5 185.0,173.5 183.0,174.5 181.0,175.5 179.5,177.0 177.5,178.0 176.0,179.5 174.0,180.5 172.0,181.5 170.5,183.0 168.0,183.5 165.0,183.5 163.0,182.5 161.0,181.5 160.0,179.5 159.5,177.0 159.5,174.0 160.5,172.0 162.0,170.5 163.5,169.0 165.5,168.0 167.0,166.5 169.0,165.5 170.5,164.0 172.5,163.0 174.5,162.0 176.0,160.5 178.0,159.5 180.0,158.5 182.0,157.5 184.0,156.5 186.0,155.5 188.0,154.5 190.0,153.5 192.5,153.0 194.5,152.0 197.0,151.5 199.0,150.5 201.0,149.5 203.5,149.0 206.0,148.5 208.0,147.5 211.0,147.5 213.0,146.5 216.0,146.5 218.0,145.5 221.0,145.5 223.0,144.5 226.0,144.5 229.0,144.5 232.0,144.5 234.5,144.0 237.0,143.5 240.0,143.5 243.0,143.5 245.0,144.5 248.0,144.5 251.0,144.5 254.0,144.5 256.0,145.5 259.0,145.5 262.0,145.5 264.0,146.5 267.0,146.5 269.0,147.5 271.5,148.0 274.0,148.5 276.0,149.5 278.5,150.0 281.0,150.5 283.0,151.5 285.0,152.5 287.0,153.5 289.5,154.0 291.5,155.0 293.5,156.0 295.5,157.0 297.5,158.0 299.5,159.0 301.5,160.0 303.5,161.0 305.0,162.5 307.0,163.5 309.0,164.5 311.0,165.5 312.5,167.0 314.5,168.0 316.0,169.5 318.0,170.5 319.5,172.0 321.0,173.5 322.5,175.0 324.5,176.0 326.0,177.5 327.5,179.0 329.0,180.5 330.5,182.0 332.0,183.5 333.5,185.0 335.0,186.5 336.0,188.5 337.5,190.0 339.0,191.5 340.5,193.0 341.5,195.0 343.0,196.5 344.0,198.5 345.5,200.0 346.5,202.0 347.5,204.0 348.5,206.0 350.0,207.5 351.0,209.5 352.0,211.5 353.0,213.5 354.0,215.5 355.0,217.5 356.0,219.5 357.0,221.5 357.5,224.0 358.5,226.0 359.5,228.0 360.5,230.0 361.0,232.5 361.5,235.0 362.5,237.0 363.0,239.5 363.5,242.0 364.5,244.0 364.5,247.0 365.5,249.0 365.5,252.0 366.0,254.5 366.5,257.0 366.5,260.0 366.5,263.0 366.5,266.0 367.5,268.0 367.5,271.0 367.5,274.0 366.5,276.0 366.5,279.0 366.5,282.0 366.5,285.0 366.0,287.5 365.5,290.0 365.5,293.0 364.5,295.0 364.5,298.0 363.5,300.0 363.5,303.0 362.5,305.0 362.0,307.5 361.5,310.0 360.5,312.0 359.5,314.0 359.0,316.5 358.0,318.5 357.5,321.0 356.5,323.0 355.5,325.0 354.5,327.0 353.5,329.0 352.5,331.0 351.5,333.0 350.5,335.0 349.0,336.5 348.0,338.5 347.0,340.5 345.5,342.0 344.5,344.0 343.5,346.0 342.0,347.5 340.5,349.0 339.5,351.0 338.0,352.5 336.5,354.0 335.5,356.0 334.0,357.5 332.5,359.0 331.0,360.5 329.5,362.0 328.0,363.5 326.5,365.0 325.0,366.5 323.0,367.5 321.5,369.0 320.0,370.5 318.5,372.0 316.5,373.0 315.0,374.5 313.0,375.5 311.5,377.0 309.5,378.0 308.0,379.5 306.0,380.5 304.0,381.5 302.0,382.5 300.0,383.5 298.0,384.5 296.0,385.5 294.0,386.5 292.0,387.5 290.0,388.5 288.0,389.5 286.0,390.5 284.0,391.5 281.5,392.0 279.0,392.5 277.0,393.5 275.0,394.5 272.0,394.5 270.0,395.5 267.5,396.0 265.0,396.5 262.5,397.0 260.0,397.5 257.0,397.5 255.0,398.5 252.0,398.5 249.0,398.5 246.0,398.5 243.5,399.0"/>
<polygon fill="rgb(50,50,50)" points="134.0,171.5 131.0,171.5 129.0,170.5 127.0,169.5 125.5,168.0 124.5,166.0 124.5,163.0 125.5,161.0 126.5,159.0 128.0,157.5 130.0,156.5 133.0,156.5 135.0,157.5 137.0,158.5 138.5,160.0 139.5,162.0 139.5,165.0 138.5,167.0 137.5,169.0 136.0,170.5 134.0,171.5"/>
<polygon fill="rgb(50,50,50)" points="241.0,223.5 238.0,223.5 236.0,222.5 233.0,222.5 231.0,221.5 229.0,220.5 227.0,219.5 225.0,218.5 223.5,217.0 222.0,215.5 220.5,214.0 219.5,212.0 218.5,210.0 217.5,208.0 216.5,206.0 216.5,203.0 215.5,201.0 215.5,198.0 216.5,196.0 216.5,193.0 217.5,191.0 218.5,189.0 219.5,187.0 220.5,185.0 222.0,183.5 223.5,182.0 225.0,180.5 227.0,179.5 229.0,178.5 231.0,177.5 233.0,176.5 236.0,176.5 238.0,175.5 241.0,175.5 243.0,176.5 246.0,176.5 248.0,177.5 250.0,178.5 252.0,179.5 254.0,180.5 255.5,182.0 257.0,183.5 258.5,185.0 259.5,187.0 260.5,189.0 261.5,191.0 262.5,193.0 262.5,196.0 263.5,198.0 263.5,201.0 262.5,203.0 262.5,206.0 261.5,208.0 260.5,210.0 259.5,212.0 258.5,214.0 257.0,215.5 255.5,217.0 254.0,218.5 252.0,219.5 250.0,220.5 248.0,221.5 246.0,222.5 243.0,222.5 241.0,223.5"/>
<polygon fill="rgb(50,50,50)" points="242.5,207.0 244.5,206.0 246.0,204.5 247.0,202.5 247.5,200.0 247.5,197.0 246.5,195.0 245.0,193.5 243.0,192.5 241.0,191.5 238.0,191.5 236.0,192.5 234.0,193.5 232.5,195.0 231.5,197.0 231.5,200.0 232.0,202.5 233.0,204.5 234.5,206.0 236.5,207.0 239.0,207.5 242.0,207.5"/>
<polygon fill="rgb(50,50,50)" points="72.0,208.5 69.0,208.5 66.5,208.0 64.5,207.0 63.5,205.0 62.5,203.0 61.5,201.0 62.5,199.0 63.5,197.0 65.0,195.5 66.5,194.0 69.0,193.5 72.0,193.5 73.5,195.0 75.5,196.0 76.5,198.0 77.0,200.5 76.5,202.0 76.0,204.5 75.0,206.5 73.0,207.5"/>
<polygon fill="rgb(50,50,50)" points="432.0,247.5 429.5,247.0 427.0,246.5 424.5,246.0 422.0,245.5 420.0,244.5 418.5,243.0 416.5,242.0 415.0,240.5 413.5,239.0 412.5,237.0 411.0,235.5 410.0,233.5 409.5,231.0 408.5,229.0 408.5,226.0 407.5,224.0 408.5,222.0 408.5,219.0 409.0,216.5 409.5,214.0 410.5,212.0 412.0,210.5 413.0,208.5 414.5,207.0 416.0,205.5 418.0,204.5 419.5,203.0 421.5,202.0 424.0,201.5 426.0,200.5 429.0,200.5 431.5,200.0 433.5,200.0 436.0,200.5 438.5,201.0 440.5,202.0 443.0,202.5 444.5,204.0 446.0,205.5 448.0,206.5 449.5,208.0 450.5,210.0 452.0,211.5 452.5,214.0 453.5,216.0 454.5,218.0 454.5,221.0 455.5,223.0 454.5,225.0 454.5,228.0 454.0,230.5 453.5,233.0 452.0,234.5 451.0,236.5 450.0,238.5 448.5,240.0 447.0,241.5 445.0,242.5 443.5,244.0 441.5,245.0 439.0,245.5 437.0,246.5 434.0,246.5 432.0,247.5"/>
<polygon fill="rgb(50,50,50)" points="102.0,220.5 99.0,220.5 96.0,220.5 94.5,219.0 93.0,217.5 91.5,216.0 91.5,213.0 92.0,210.5 93.0,208.5 94.5,207.0 97.0,206.5 99.0,205.5 101.0,206.5 103.5,207.0 105.0,208.5 106.0,210.5 106.5,213.0 106.5,216.0 105.0,217.5 104.0,219.5 102.0,220.5"/>
<polygon fill="rgb(50,50,50)" points="185.0,222.5 182.0,222.5 180.0,221.5 178.0,220.5 176.5,219.0 175.5,217.0 175.5,214.0 176.0,211.5 177.5,210.0 179.0,208.5 181.0,207.5 184.0,207.5 186.5,208.0 188.0,209.5 189.5,211.0 190.5,213.0 190.5,216.0 189.5,218.0 188.5,220.0 187.0,221.5 185.0,222.5"/>
<polygon fill="rgb(50,50,50)" points="299.0,222.5 296.0,222.5 293.5,222.0 291.5,221.0 290.0,219.5 288.5,218.0 288.5,215.0 288.5,212.0 290.0,210.5 291.5,209.0 293.0,207.5 296.0,207.5 299.0,207.5 301.0,208.5 302.5,210.0 303.5,212.0 303.5,215.0 303.5,218.0 302.0,219.5 300.5,221.0 299.0,222.5"/>
<polygon fill="rgb(50,50,50)" points="435.5,231.0 437.0,229.5 438.5,228.0 439.5,226.0 439.5,223.0 439.5,220.0 438.0,218.5 436.5,217.0 435.0,215.5 432.0,215.5 429.0,215.5 427.0,216.5 425.5,218.0 424.0,219.5 423.5,222.0 423.5,225.0 424.0,227.5 425.5,229.0 427.0,230.5 429.0,231.5 432.0,231.5 435.0,231.5"/>
<polygon fill="rgb(50,50,50)" points="241.0,311.5 238.0,311.5 236.0,310.5 233.0,310.5 230.5,310.0 228.0,309.5 226.0,308.5 224.0,307.5 221.5,307.0 220.0,305.5 218.0,304.5 216.0,303.5 214.5,302.0 213.0,300.5 211.0,299.5 210.0,297.5 208.5,296.0 207.0,294.5 206.0,292.5 204.5,291.0 203.5,289.0 203.0,286.5 202.0,284.5 201.5,282.0 200.5,280.0 200.5,277.0 200.0,274.5 199.5,272.0 199.5,269.0 200.5,267.0 200.5,264.0 201.5,262.0 201.5,259.0 202.5,257.0 203.5,255.0 204.5,253.0 205.5,251.0 206.5,249.0 208.0,247.5 209.5,246.0 210.5,244.0 212.0,242.5 214.0,241.5 215.5,240.0 217.0,238.5 219.0,237.5 221.0,236.5 223.0,235.5 225.0,234.5 227.0,233.5 230.0,233.5 232.0,232.5 235.0,232.5 237.5,232.0 240.0,231.5 242.5,232.0 245.0,232.5 248.0,232.5 250.0,233.5 252.0,234.5 253.5,236.0 254.5,238.0 255.5,240.0 255.5,243.0 254.5,245.0 253.0,246.5 251.0,247.5 249.0,248.5 246.0,248.5 244.0,247.5 241.0,247.5 238.0,247.5 235.0,247.5 233.0,248.5 230.5,249.0 228.5,250.0 226.5,251.0 225.0,252.5 223.0,253.5 221.5,255.0 220.5,257.0 219.0,258.5 218.0,260.5 217.0,262.5 216.5,265.0 215.5,267.0 215.5,270.0 215.5,273.0 215.5,276.0 216.5,278.0 217.0,280.5 218.0,282.5 219.0,284.5 220.5,286.0 221.5,288.0 223.0,289.5 225.0,290.5 226.5,292.0 228.5,293.0 230.5,294.0 233.0,294.5 235.0,295.5 238.0,295.5 241.0,295.5 244.0,295.5 246.0,294.5 248.0,293.5 250.5,293.0 252.5,292.0 254.0,290.5 255.5,289.0 257.0,287.5 258.5,286.0 259.5,284.0 261.0,282.5 262.0,280.5 262.5,278.0 263.5,276.0 263.5,273.0 263.5,270.0 263.5,267.0 262.5,265.0 262.5,262.0 263.5,260.0 264.5,258.0 266.0,256.5 268.0,255.5 271.0,255.5 273.5,256.0 275.0,257.5 276.5,259.0 277.5,261.0 278.5,263.0 278.5,266.0 279.0,268.5 279.5,271.0 279.0,273.5 278.5,276.0 278.5,279.0 277.5,281.0 277.5,284.0 276.5,286.0 275.5,288.0 274.5,290.0 273.5,292.0 272.5,294.0 271.0,295.5 269.5,297.0 268.5,299.0 267.0,300.5 265.0,301.5 263.5,303.0 262.0,304.5 260.0,305.5 258.0,306.5 256.0,307.5 254.0,308.5 252.0,309.5 249.0,309.5 247.0,310.5 244.0,310.5 241.5,311.0"/>
<polygon fill="rgb(50,50,50)" points="170.0,295.5 167.0,295.5 164.5,295.0 162.0,294.5 160.0,293.5 157.5,293.0 155.5,292.0 154.0,290.5 152.0,289.5 150.5,288.0 149.0,286.5 148.0,284.5 146.5,283.0 145.5,281.0 145.0,278.5 144.5,276.0 143.5,274.0 143.5,271.0 144.0,268.5 144.5,266.0 145.5,264.0 146.0,261.5 147.0,259.5 148.0,257.5 149.5,256.0 151.0,254.5 152.5,253.0 154.0,251.5 156.0,250.5 158.0,249.5 160.5,249.0 163.0,248.5 165.0,247.5 168.0,247.5 170.0,248.5 173.0,248.5 175.0,249.5 177.5,250.0 179.5,251.0 181.0,252.5 183.0,253.5 184.5,255.0 186.0,256.5 187.0,258.5 188.5,260.0 189.5,262.0 190.0,264.5 190.5,267.0 191.0,269.5 191.5,272.0 190.5,274.0 190.5,277.0 189.5,279.0 189.0,281.5 188.0,283.5 186.5,285.0 185.5,287.0 184.0,288.5 182.5,290.0 180.5,291.0 179.0,292.5 177.0,293.5 174.5,294.0 172.0,294.5 170.0,295.5"/>
<polygon fill="rgb(50,50,50)" points="314.0,295.5 311.0,295.5 309.0,294.5 306.0,294.5 304.0,293.5 301.5,293.0 299.5,292.0 298.0,290.5 296.0,289.5 294.5,288.0 293.0,286.5 292.0,284.5 290.5,283.0 289.5,281.0 289.0,278.5 288.5,276.0 288.0,273.5 287.5,271.0 288.5,269.0 288.5,266.0 289.5,264.0 290.0,261.5 291.0,259.5 292.5,258.0 293.5,256.0 295.0,254.5 296.5,253.0 298.5,252.0 300.0,250.5 302.0,249.5 304.5,249.0 307.0,248.5 309.0,247.5 312.0,247.5 314.5,248.0 317.0,248.5 319.0,249.5 321.5,250.0 323.5,251.0 325.0,252.5 327.0,253.5 328.5,255.0 330.0,256.5 331.0,258.5 332.5,260.0 333.5,262.0 334.0,264.5 334.5,267.0 335.5,269.0 335.5,272.0 335.0,274.5 334.5,277.0 333.5,279.0 333.0,281.5 332.0,283.5 330.5,285.0 329.5,287.0 328.0,288.5 326.5,290.0 324.5,291.0 323.0,292.5 321.0,293.5 318.5,294.0 316.0,294.5 314.0,295.5"/>
<polygon fill="rgb(50,50,50)" points="56.0,279.5 54.0,278.5 51.5,278.0 50.0,276.5 48.5,275.0 48.0,272.5 48.0,270.5 48.5,268.0 50.0,266.5 51.5,265.0 54.0,264.5 56.0,263.5 58.0,264.5 60.0,265.5 61.5,267.0 62.5,269.0 63.5,271.0 62.5,273.0 62.0,275.5 60.5,277.0 59.0,278.5 56.5,279.0"/>
<polygon fill="rgb(50,50,50)" points="88.0,279.5 86.0,278.5 83.5,278.0 82.0,276.5 80.5,275.0 80.0,272.5 80.0,270.5 80.5,268.0 82.0,266.5 83.5,265.0 86.0,264.5 88.0,263.5 90.0,264.5 92.0,265.5 93.5,267.0 94.5,269.0 95.5,271.0 94.5,273.0 94.0,275.5 92.5,277.0 91.0,278.5 88.5,279.0"/>
<polygon fill="rgb(50,50,50)" points="170.5,279.0 172.5,278.0 174.0,276.5 175.0,274.5 175.5,272.0 175.5,269.0 174.5,267.0 173.0,265.5 171.0,264.5 169.0,263.5 166.0,263.5 164.0,264.5 162.0,265.5 160.5,267.0 159.5,269.0 159.5,272.0 160.0,274.5 161.0,276.5 162.5,278.0 164.5,279.0 167.0,279.5 170.0,279.5"/>
<polygon fill="rgb(50,50,50)" points="314.5,279.0 316.5,278.0 318.0,276.5 319.0,274.5 319.5,272.0 319.5,269.0 318.5,267.0 317.0,265.5 315.0,264.5 313.0,263.5 310.0,263.5 308.0,264.5 306.0,265.5 304.5,267.0 303.5,269.0 303.5,272.0 304.0,274.5 305.0,276.5 306.5,278.0 308.5,279.0 311.0,279.5 314.0,279.5"/>
<polygon fill="rgb(50,50,50)" points="249.0,495.5 246.0,495.5 243.0,495.5 240.0,495.5 237.0,495.5 234.0,495.5 231.0,495.5 229.0,494.5 226.0,494.5 223.0,494.5 220.0,494.5 217.0,494.5 215.0,493.5 212.0,493.5 209.0,493.5 207.0,492.5 204.0,492.5 201.5,492.0 199.0,491.5 196.5,491.0 194.0,490.5 191.5,490.0 189.0,489.5 187.0,488.5 184.0,488.5 182.0,487.5 179.5,487.0 177.0,486.5 175.0,485.5 172.5,485.0 170.0,484.5 168.0,483.5 166.0,482.5 163.5,482.0 161.5,481.0 159.0,480.5 157.0,479.5 155.0,478.5 153.0,477.5 151.0,476.5 148.5,476.0 146.5,475.0 144.5,474.0 142.5,473.0 140.5,472.0 138.5,471.0 136.5,470.0 134.5,469.0 132.5,468.0 130.5,467.0 128.5,466.0 127.0,464.5 125.0,463.5 123.0,462.5 121.0,461.5 119.5,460.0 117.5,459.0 115.5,458.0 114.0,456.5 112.0,455.5 110.5,454.0 108.5,453.0 107.0,451.5 105.0,450.5 103.5,449.0 102.0,447.5 100.0,446.5 98.5,445.0 97.0,443.5 95.0,442.5 93.5,441.0 92.0,439.5 91.0,437.5 90.5,435.0 91.0,432.5 92.0,430.5 93.5,429.0 95.5,428.0 98.0,427.5 101.0,427.5 103.0,428.5 104.5,430.0 106.0,431.5 107.5,433.0 109.5,434.0 111.0,435.5 112.5,437.0 114.5,438.0 116.0,439.5 118.0,440.5 119.5,442.0 121.5,443.0 123.0,444.5 125.0,445.5 127.0,446.5 128.5,448.0 130.5,449.0 132.0,450.5 134.0,451.5 136.0,452.5 138.0,453.5 140.0,454.5 142.0,455.5 144.0,456.5 146.0,457.5 148.0,458.5 150.0,459.5 152.0,460.5 154.0,461.5 156.0,462.5 158.0,463.5 160.0,464.5 162.5,465.0 164.5,466.0 167.0,466.5 169.0,467.5 171.0,468.5 173.5,469.0 176.0,469.5 178.0,470.5 180.0,471.5 182.5,472.0 185.0,472.5 187.0,473.5 190.0,473.5 192.0,474.5 194.5,475.0 197.0,475.5 199.5,476.0 202.0,476.5 205.0,476.5 207.0,477.5 210.0,477.5 212.0,478.5 215.0,478.5 218.0,478.5 220.5,479.0 223.0,479.5 226.0,479.5 229.0,479.5 232.0,479.5 235.0,479.5 238.0,479.5 241.0,479.5 244.0,479.5 247.0,479.5 250.0,479.5 253.0,479.5 256.0,479.5 258.5,479.0 261.0,478.5 264.0,478.5 267.0,478.5 269.0,477.5 272.0,477.5 274.5,477.0 277.0,476.5 279.5,476.0 282.0,475.5 284.5,475.0 287.0,474.5 289.0,473.5 292.0,473.5 294.0,472.5 296.5,472.0 299.0,471.5 301.0,470.5 303.0,469.5 306.0,469.5 308.0,468.5 310.0,467.5 312.0,466.5 314.5,466.0 316.5,465.0 319.0,464.5 321.0,463.5 323.0,462.5 325.0,461.5 327.0,460.5 329.0,459.5 331.0,458.5 333.0,457.5 335.0,456.5 337.0,455.5 339.0,454.5 341.0,453.5 343.0,452.5 345.0,451.5 347.0,450.5 348.5,449.0 350.5,448.0 352.0,446.5 354.0,445.5 356.0,444.5 357.5,443.0 359.5,442.0 361.0,440.5 363.0,439.5 364.5,438.0 366.5,437.0 368.0,435.5 369.5,434.0 371.5,433.0 373.0,431.5 374.5,430.0 376.0,428.5 378.0,427.5 379.5,426.0 381.0,424.5 382.5,423.0 384.0,421.5 385.5,420.0 387.0,418.5 388.5,417.0 390.0,415.5 391.5,414.0 393.0,412.5 394.5,411.0 396.0,409.5 397.5,408.0 398.5,406.0 400.0,404.5 401.5,403.0 402.5,401.0 404.0,399.5 405.5,398.0 406.5,396.0 408.0,394.5 409.0,392.5 410.5,391.0 411.5,389.0 413.0,387.5 414.0,385.5 415.0,383.5 416.5,382.0 417.5,380.0 418.5,378.0 419.5,376.0 420.5,374.0 422.0,372.5 423.0,370.5 424.0,368.5 425.0,366.5 426.0,364.5 427.0,362.5 428.0,360.5 429.0,358.5 430.0,356.5 430.5,354.0 431.5,352.0 432.5,350.0 433.5,348.0 434.5,346.0 435.0,343.5 435.5,341.0 436.5,339.0 437.5,337.0 438.5,335.0 438.5,332.0 439.5,330.0 440.5,328.0 440.5,325.0 441.5,323.0 442.0,320.5 442.5,318.0 443.5,316.0 443.5,313.0 444.5,311.0 444.5,308.0 445.5,306.0 445.5,303.0 446.0,300.5 447.5,299.0 449.0,297.5 451.0,296.5 453.0,295.5 455.0,296.5 457.5,297.0 459.0,298.5 460.5,300.0 460.5,303.0 460.5,306.0 460.5,309.0 459.5,311.0 459.5,314.0 458.5,316.0 458.5,319.0 457.5,321.0 457.0,323.5 456.5,326.0 455.5,328.0 455.5,331.0 454.5,333.0 454.0,335.5 453.5,338.0 452.5,340.0 451.5,342.0 451.0,344.5 450.5,347.0 449.5,349.0 448.5,351.0 447.5,353.0 447.0,355.5 446.0,357.5 445.5,360.0 444.5,362.0 443.5,364.0 442.5,366.0 441.5,368.0 440.5,370.0 439.5,372.0 438.5,374.0 437.5,376.0 436.5,378.0 435.5,380.0 434.5,382.0 433.0,383.5 432.0,385.5 431.0,387.5 429.5,389.0 428.5,391.0 427.5,393.0 426.5,395.0 425.0,396.5 424.0,398.5 422.5,400.0 421.5,402.0 420.0,403.5 419.0,405.5 417.5,407.0 416.5,409.0 415.0,410.5 413.5,412.0 412.5,414.0 411.0,415.5 409.5,417.0 408.0,418.5 406.5,420.0 405.5,422.0 404.0,423.5 402.5,425.0 401.0,426.5 399.5,428.0 398.0,429.5 396.5,431.0 395.0,432.5 393.5,434.0 392.0,435.5 390.5,437.0 389.0,438.5 387.0,439.5 385.5,441.0 384.0,442.5 382.5,444.0 380.5,445.0 379.0,446.5 377.5,448.0 375.5,449.0 374.0,450.5 372.0,451.5 370.5,453.0 369.0,454.5 367.0,455.5 365.0,456.5 363.5,458.0 361.5,459.0 360.0,460.5 358.0,461.5 356.0,462.5 354.0,463.5 352.0,464.5 350.5,466.0 348.5,467.0 346.5,468.0 344.5,469.0 342.5,470.0 340.5,471.0 338.5,472.0 336.5,473.0 334.5,474.0 332.5,475.0 330.5,476.0 328.0,476.5 326.0,477.5 324.0,478.5 322.0,479.5 320.0,480.5 318.0,481.5 315.5,482.0 313.0,482.5 311.0,483.5 309.0,484.5 306.5,485.0 304.0,485.5 302.0,486.5 299.5,487.0 297.0,487.5 295.0,488.5 292.0,488.5 290.0,489.5 287.5,490.0 285.0,490.5 283.0,491.5 280.0,491.5 277.5,492.0 275.0,492.5 272.0,492.5 270.0,493.5 267.0,493.5 264.0,493.5 262.0,494.5 259.0,494.5 256.0,494.5 253.0,494.5 250.0,494.5"/>
<polygon fill="rgb(50,50,50)" points="241.0,367.5 238.0,367.5 236.0,366.5 233.0,366.5 231.0,365.5 229.0,364.5 227.0,363.5 225.0,362.5 223.5,361.0 222.0,359.5 220.5,358.0 219.5,356.0 218.5,354.0 217.5,352.0 216.5,350.0 216.5,347.0 215.5,345.0 215.5,342.0 216.5,340.0 216.5,337.0 217.5,335.0 218.5,333.0 219.5,331.0 220.5,329.0 222.0,327.5 223.5,326.0 225.0,324.5 227.0,323.5 229.0,322.5 231.0,321.5 233.0,320.5 236.0,320.5 238.0,319.5 241.0,319.5 243.0,320.5 246.0,320.5 248.0,321.5 250.0,322.5 252.0,323.5 254.0,324.5 255.5,326.0 257.0,327.5 258.5,329.0 259.5,331.0 260.5,333.0 261.5,335.0 262.5,337.0 262.5,340.0 263.5,342.0 263.0,344.5 262.5,347.0 261.0,348.5 259.5,350.0 257.5,351.0 255.0,351.5 253.0,350.5 251.0,349.5 249.5,348.0 248.5,346.0 247.5,344.0 247.5,341.0 246.5,339.0 245.0,337.5 243.0,336.5 241.0,335.5 238.0,335.5 236.0,336.5 234.0,337.5 232.5,339.0 231.5,341.0 231.5,344.0 232.0,346.5 233.0,348.5 234.5,350.0 236.5,351.0 239.0,351.5 241.5,352.0 243.5,353.0 245.0,354.5 246.5,356.0 247.5,358.0 247.5,361.0 246.5,363.0 245.0,364.5 243.5,366.0 241.5,367.0"/>
<polygon fill="rgb(50,50,50)" points="186.0,335.5 183.0,335.5 180.0,335.5 178.0,334.5 176.5,333.0 175.5,331.0 175.5,328.0 175.5,325.0 177.0,323.5 178.5,322.0 180.0,320.5 183.0,320.5 185.5,321.0 187.5,322.0 189.0,323.5 190.0,325.5 190.5,328.0 190.5,331.0 189.0,332.5 187.5,334.0 186.0,335.5"/>
<polygon fill="rgb(50,50,50)" points="299.0,335.5 296.0,335.5 293.0,335.5 291.5,334.0 290.0,332.5 289.0,330.5 288.5,328.0 289.0,325.5 290.0,323.5 291.5,322.0 293.5,321.0 296.0,320.5 298.5,321.0 300.5,322.0 302.0,323.5 303.5,325.0 303.5,328.0 303.5,331.0 302.0,332.5 300.5,334.0 299.0,335.5"/>
<polygon fill="rgb(50,50,50)" points="100.0,337.5 97.5,337.0 95.0,336.5 93.5,335.0 92.5,333.0 91.5,331.0 91.5,328.0 92.5,326.0 94.0,324.5 95.5,323.0 98.0,322.5 101.0,322.5 103.0,323.5 104.5,325.0 106.0,326.5 106.5,329.0 106.5,332.0 105.5,334.0 104.0,335.5 102.0,336.5 100.0,337.5"/>
<polygon fill="rgb(50,50,50)" points="381.0,337.5 378.5,337.0 376.0,336.5 374.5,335.0 373.5,333.0 372.5,331.0 372.5,328.0 373.5,326.0 374.5,324.0 376.5,323.0 379.0,322.5 382.0,322.5 384.0,323.5 385.5,325.0 387.0,326.5 387.5,329.0 387.5,332.0 386.5,334.0 385.0,335.5 383.0,336.5 381.0,337.5"/>
<polygon fill="rgb(50,50,50)" points="72.0,349.5 69.0,349.5 66.5,349.0 65.0,347.5 63.5,346.0 62.5,344.0 61.5,342.0 62.5,340.0 63.5,338.0 64.5,336.0 66.5,335.0 69.0,334.5 72.0,334.5 74.0,335.5 75.5,337.0 76.5,339.0 77.5,341.0 76.5,343.0 76.0,345.5 75.0,347.5 73.0,348.5"/>
<polygon fill="rgb(50,50,50)" points="412.0,349.5 409.0,349.5 406.5,349.0 405.0,347.5 403.5,346.0 402.5,344.0 401.5,342.0 402.5,340.0 403.5,338.0 404.5,336.0 406.5,335.0 409.0,334.5 412.0,334.5 414.0,335.5 415.5,337.0 416.5,339.0 417.0,341.5 416.5,343.0 416.0,345.5 415.0,347.5 413.0,348.5"/>
<polygon fill="rgb(50,50,50)" points="134.0,386.5 131.0,386.5 129.0,385.5 127.0,384.5 125.5,383.0 124.5,381.0 124.5,378.0 125.5,376.0 126.5,374.0 128.0,372.5 130.0,371.5 133.0,371.5 135.0,372.5 137.0,373.5 138.5,375.0 139.5,377.0 139.5,380.0 138.5,382.0 137.5,384.0 136.0,385.5 134.0,386.5"/>
<polygon fill="rgb(50,50,50)" points="349.0,386.5 346.0,386.5 344.0,385.5 342.0,384.5 340.5,383.0 339.5,381.0 339.5,378.0 340.5,376.0 341.5,374.0 343.0,372.5 345.0,371.5 348.0,371.5 350.0,372.5 352.0,373.5 353.5,375.0 354.5,377.0 354.5,380.0 353.5,382.0 352.5,384.0 351.0,385.5 349.0,386.5"/>
<polygon fill="rgb(50,50,50)" points="111.0,409.5 108.0,409.5 106.0,408.5 104.5,407.0 103.0,405.5 102.0,403.5 101.5,401.0 102.5,399.0 103.5,397.0 105.0,395.5 107.0,394.5 110.0,394.5 113.0,394.5 114.5,396.0 116.0,397.5 116.5,400.0 116.5,403.0 116.0,405.5 114.5,407.0 113.0,408.5 111.0,409.5"/>
<polygon fill="rgb(50,50,50)" points="371.0,409.5 368.5,409.0 366.0,408.5 364.5,407.0 363.0,405.5 362.5,403.0 362.5,400.0 363.0,397.5 364.5,396.0 366.0,394.5 369.0,394.5 372.0,394.5 374.0,395.5 375.5,397.0 376.5,399.0 377.5,401.0 377.0,403.5 376.0,405.5 374.5,407.0 373.0,408.5 371.0,409.5"/>
<polygon fill="rgb(50,50,50)" points="184.0,419.5 181.0,419.5 178.5,419.0 176.5,418.0 175.0,416.5 174.5,414.0 173.5,412.0 174.5,410.0 175.0,407.5 176.5,406.0 178.5,405.0 181.0,404.5 184.0,404.5 185.5,406.0 187.5,407.0 188.5,409.0 188.5,412.0 188.5,415.0 187.0,416.5 185.5,418.0 184.0,419.5"/>
<polygon fill="rgb(50,50,50)" points="300.0,419.5 297.0,419.5 295.0,418.5 293.0,417.5 291.5,416.0 290.5,414.0 290.5,411.0 291.0,408.5 292.0,406.5 294.0,405.5 296.0,404.5 299.0,404.5 301.0,405.5 303.0,406.5 304.5,408.0 305.5,410.0 305.5,413.0 304.5,415.0 303.5,417.0 302.0,418.5 300.0,419.5"/>
<polygon fill="rgb(50,50,50)" points="240.0,431.5 238.0,430.5 235.5,430.0 234.0,428.5 232.5,427.0 232.0,424.5 232.0,422.5 232.5,420.0 234.0,418.5 235.5,417.0 238.0,416.5 240.0,415.5 242.0,416.5 244.0,417.5 245.5,419.0 246.5,421.0 247.5,423.0 246.5,425.0 246.0,427.5 244.5,429.0 243.0,430.5 240.5,431.0"/>
<polygon fill="rgb(50,50,50)" points="169.0,449.5 167.0,448.5 165.0,447.5 163.5,446.0 162.0,444.5 161.5,442.0 161.5,439.0 162.5,437.0 164.0,435.5 166.0,434.5 168.5,434.0 170.5,434.0 172.5,435.0 174.5,436.0 175.5,438.0 176.5,440.0 176.5,443.0 175.5,445.0 174.5,447.0 172.5,448.0 170.0,448.5"/>
<polygon fill="rgb(50,50,50)" points="310.0,449.5 308.0,448.5 306.0,447.5 304.0,446.5 303.0,444.5 302.5,442.0 302.5,439.0 303.5,437.0 305.0,435.5 307.0,434.5 309.0,433.5 311.0,434.5 313.5,435.0 315.5,436.0 316.5,438.0 317.5,440.0 317.5,443.0 316.5,445.0 315.5,447.0 313.5,448.0 311.0,448.5"/>
<polygon fill="rgb(50,50,50)" points="240.0,463.5 238.0,462.5 235.5,462.0 234.0,460.5 232.5,459.0 232.0,456.5 232.0,454.5 232.5,452.0 234.0,450.5 235.5,449.0 238.0,448.5 240.0,447.5 242.0,448.5 244.0,449.5 245.5,451.0 246.5,453.0 247.5,455.0 246.5,457.0 246.0,459.5 244.5,461.0 243.0,462.5 240.5,463.0"/>
<polygon fill="rgb(99,105,115)" points="251.0,383.5 248.0,383.5 245.0,383.5 242.0,383.5 239.0,383.5 236.0,383.5 233.0,383.5 230.0,383.5 227.0,383.5 225.0,382.5 222.0,382.5 219.5,382.0 217.0,381.5 214.5,381.0 212.0,380.5 210.0,379.5 207.5,379.0 205.0,378.5 203.0,377.5 201.0,376.5 198.5,376.0 196.5,375.0 194.0,374.5 192.0,373.5 190.0,372.5 188.0,371.5 186.0,370.5 184.5,369.0 182.5,368.0 180.5,367.0 179.0,365.5 177.0,364.5 175.0,363.5 173.5,362.0 171.5,361.0 170.0,359.5 168.5,358.0 166.5,357.0 165.0,355.5 163.5,354.0 162.0,352.5 160.5,351.0 159.0,349.5 157.5,348.0 156.0,346.5 154.5,345.0 153.5,343.0 152.0,341.5 150.5,340.0 149.5,338.0 148.0,336.5 147.0,334.5 145.5,333.0 144.5,331.0 143.5,329.0 142.5,327.0 141.0,325.5 140.0,323.5 139.0,321.5 138.0,319.5 137.5,317.0 136.5,315.0 135.5,313.0 134.5,311.0 133.5,309.0 133.0,306.5 132.5,304.0 131.5,302.0 130.5,300.0 130.5,297.0 129.5,295.0 129.5,292.0 128.5,290.0 128.5,287.0 128.0,284.5 127.5,282.0 127.5,279.0 127.5,276.0 127.5,273.0 127.5,270.0 127.5,267.0 127.5,264.0 127.5,261.0 128.0,258.5 128.5,256.0 128.5,253.0 129.5,251.0 129.5,248.0 130.5,246.0 130.5,243.0 131.5,241.0 132.5,239.0 133.0,236.5 133.5,234.0 134.5,232.0 135.5,230.0 136.5,228.0 137.0,225.5 138.0,223.5 139.0,221.5 140.0,219.5 141.0,217.5 142.5,216.0 143.5,214.0 144.5,212.0 145.5,210.0 147.0,208.5 148.0,206.5 149.5,205.0 150.5,203.0 151.5,201.0 151.5,198.0 151.0,195.5 150.0,193.5 150.0,191.5 151.5,190.0 153.0,188.5 154.5,187.0 156.0,185.5 157.5,184.0 159.0,182.5 161.0,181.5 163.0,182.5 165.0,183.5 168.0,183.5 170.5,183.0 172.5,182.0 174.0,180.5 176.0,179.5 177.5,178.0 179.5,177.0 181.0,175.5 183.0,174.5 185.0,173.5 187.0,172.5 189.0,171.5 191.0,170.5 193.0,169.5 195.0,168.5 197.0,167.5 199.0,166.5 201.5,166.0 204.0,165.5 206.0,164.5 208.0,163.5 210.5,163.0 213.0,162.5 215.0,161.5 218.0,161.5 220.0,160.5 223.0,160.5 226.0,160.5 228.0,159.5 231.0,159.5 234.0,159.5 237.0,159.5 240.0,159.5 243.0,159.5 246.0,159.5 249.0,159.5 252.0,159.5 254.0,160.5 257.0,160.5 259.5,161.0 262.0,161.5 264.5,162.0 267.0,162.5 269.0,163.5 271.5,164.0 274.0,164.5 276.0,165.5 278.0,166.5 280.5,167.0 282.5,168.0 284.5,169.0 287.0,169.5 289.0,170.5 291.0,171.5 293.0,172.5 294.5,174.0 296.5,175.0 298.5,176.0 300.0,177.5 302.0,178.5 304.0,179.5 305.5,181.0 307.5,182.0 309.0,183.5 310.5,185.0 312.5,186.0 314.0,187.5 315.5,189.0 317.0,190.5 318.5,192.0 320.0,193.5 321.5,195.0 323.0,196.5 324.5,198.0 325.5,200.0 327.0,201.5 328.5,203.0 329.5,205.0 331.0,206.5 332.0,208.5 333.5,210.0 334.5,212.0 335.5,214.0 336.5,216.0 338.0,217.5 339.0,219.5 340.0,221.5 341.0,223.5 342.0,225.5 342.5,228.0 343.5,230.0 344.5,232.0 345.5,234.0 346.0,236.5 346.5,239.0 347.5,241.0 348.5,243.0 348.5,246.0 349.5,248.0 349.5,251.0 350.5,253.0 350.5,256.0 351.0,258.5 351.5,261.0 351.5,264.0 351.5,267.0 351.5,270.0 351.5,273.0 351.5,276.0 351.5,279.0 351.5,282.0 350.5,284.0 350.5,287.0 350.5,290.0 349.5,292.0 349.5,295.0 348.5,297.0 348.5,300.0 347.5,302.0 346.5,304.0 346.0,306.5 345.5,309.0 344.5,311.0 343.5,313.0 342.5,315.0 342.0,317.5 341.0,319.5 340.0,321.5 339.0,323.5 338.0,325.5 337.0,327.5 335.5,329.0 334.5,331.0 333.5,333.0 332.0,334.5 331.0,336.5 329.5,338.0 328.5,340.0 327.0,341.5 325.5,343.0 324.5,345.0 323.0,346.5 321.5,348.0 320.0,349.5 318.5,351.0 317.0,352.5 315.5,354.0 314.0,355.5 312.5,357.0 310.5,358.0 309.0,359.5 307.5,361.0 305.5,362.0 304.0,363.5 302.0,364.5 300.0,365.5 298.5,367.0 296.5,368.0 295.0,369.5 293.0,370.5 291.0,371.5 289.0,372.5 287.0,373.5 285.0,374.5 282.5,375.0 280.5,376.0 278.0,376.5 276.0,377.5 274.0,378.5 271.5,379.0 269.0,379.5 267.0,380.5 264.0,380.5 262.0,381.5 259.5,382.0 257.0,382.5 254.0,382.5 251.5,383.0"/>
<polygon fill="rgb(99,105,115)" points="241.5,367.0 243.5,366.0 245.0,364.5 246.5,363.0 247.5,361.0 247.5,358.0 249.0,356.5 251.0,355.5 252.0,353.5 253.5,352.0 256.0,351.5 258.0,350.5 260.0,349.5 261.5,348.0 262.5,346.0 263.5,345.0 265.5,346.0 268.0,346.5 271.0,346.5 273.5,347.0 276.0,347.5 279.0,347.5 282.0,347.5 285.0,347.5 288.0,347.5 291.0,347.5 293.5,347.0 296.0,346.5 299.0,346.5 302.0,346.5 304.0,345.5 307.0,345.5 309.0,344.5 310.5,343.0 310.5,340.0 311.0,337.5 311.5,335.0 311.5,332.0 312.5,330.0 312.5,327.0 312.5,324.0 312.5,321.0 312.5,318.0 312.5,315.0 312.5,312.0 312.5,309.0 311.5,307.0 311.5,304.0 311.5,301.0 310.5,299.0 310.5,296.0 313.0,295.5 315.0,294.5 318.0,294.5 320.0,293.5 322.0,292.5 324.0,291.5 326.0,290.5 327.5,289.0 329.0,287.5 330.5,286.0 331.5,284.0 332.5,282.0 333.5,280.0 334.5,278.0 334.5,275.0 335.5,273.0 335.5,270.0 334.5,268.0 334.5,265.0 333.5,263.0 332.5,261.0 331.5,259.0 330.5,257.0 329.0,255.5 327.5,254.0 326.0,252.5 324.0,251.5 322.0,250.5 320.0,249.5 318.0,248.5 315.0,248.5 313.0,247.5 310.0,247.5 308.0,248.5 305.0,248.5 303.0,249.5 301.0,250.5 299.0,251.5 297.0,252.5 295.5,254.0 294.0,255.5 293.5,253.0 292.0,251.5 291.0,249.5 289.5,248.0 288.5,246.0 287.0,244.5 285.5,243.0 284.5,241.0 283.0,239.5 281.5,238.0 280.0,236.5 278.5,235.0 277.0,233.5 275.5,232.0 274.0,230.5 272.5,229.0 271.0,227.5 269.0,226.5 267.5,225.0 266.0,223.5 264.0,222.5 262.5,221.0 261.0,219.5 259.0,218.5 257.0,217.5 256.0,216.5 257.5,215.0 259.0,213.5 260.0,211.5 261.0,209.5 262.0,207.5 262.5,205.0 263.0,202.5 263.5,200.0 263.5,197.0 262.5,195.0 262.5,192.0 261.5,190.0 260.5,188.0 259.5,186.0 258.0,184.5 256.5,183.0 255.0,181.5 253.5,180.0 251.5,179.0 249.5,178.0 247.5,177.0 245.0,176.5 242.5,176.0 240.0,175.5 237.0,175.5 235.0,176.5 232.0,176.5 230.0,177.5 228.0,178.5 226.0,179.5 224.5,181.0 223.0,182.5 221.5,184.0 220.0,185.5 219.0,187.5 218.0,189.5 217.0,191.5 216.5,194.0 216.0,196.5 215.5,199.0 214.0,200.5 211.5,200.0 209.0,199.5 206.0,199.5 204.0,198.5 201.0,198.5 198.0,198.5 195.0,198.5 192.0,198.5 189.0,198.5 186.0,198.5 183.0,198.5 180.5,199.0 178.0,199.5 175.0,199.5 173.0,200.5 170.0,200.5 167.5,201.0 166.5,203.0 165.5,205.0 165.5,208.0 164.5,210.0 164.5,213.0 164.5,216.0 163.5,218.0 163.5,221.0 163.5,224.0 163.5,227.0 163.5,230.0 163.5,233.0 163.5,236.0 164.5,238.0 164.5,241.0 164.5,244.0 165.0,246.5 164.5,248.0 162.0,248.5 159.5,249.0 157.5,250.0 155.5,251.0 153.5,252.0 152.0,253.5 150.5,255.0 149.0,256.5 147.5,258.0 146.5,260.0 145.5,262.0 144.5,264.0 144.5,267.0 143.5,269.0 143.5,272.0 144.0,274.5 144.5,277.0 145.0,279.5 146.0,281.5 147.0,283.5 148.0,285.5 149.5,287.0 151.0,288.5 152.5,290.0 154.0,291.5 156.0,292.5 158.0,293.5 160.5,294.0 163.0,294.5 165.0,295.5 168.0,295.5 170.5,295.0 173.0,294.5 175.5,294.0 177.5,293.0 179.5,292.0 181.5,291.0 182.5,292.0 183.5,294.0 185.0,295.5 186.0,297.5 187.5,299.0 188.5,301.0 190.0,302.5 191.5,304.0 192.5,306.0 194.0,307.5 195.5,309.0 197.0,310.5 198.5,312.0 200.0,313.5 201.5,315.0 203.0,316.5 204.5,318.0 206.5,319.0 208.0,320.5 209.5,322.0 211.5,323.0 213.0,324.5 215.0,325.5 216.5,327.0 218.5,328.0 220.5,329.0 219.5,331.0 218.5,333.0 217.5,335.0 216.5,337.0 216.5,340.0 215.5,342.0 215.5,345.0 216.5,347.0 216.5,350.0 217.5,352.0 218.5,354.0 219.5,356.0 220.5,358.0 222.0,359.5 223.5,361.0 225.0,362.5 227.0,363.5 229.0,364.5 231.0,365.5 233.0,366.5 236.0,366.5 238.0,367.5 241.0,367.5"/>
<polygon fill="rgb(99,105,115)" points="299.5,222.0 301.0,220.5 302.5,219.0 303.5,217.0 303.5,214.0 303.0,211.5 302.0,209.5 300.0,208.5 298.0,207.5 295.0,207.5 292.5,208.0 290.5,209.0 289.5,211.0 288.5,213.0 288.5,216.0 289.0,218.5 290.5,220.0 292.0,221.5 294.0,222.5 297.0,222.5 299.5,222.0"/>
<polygon fill="rgb(99,105,115)" points="186.5,335.0 188.0,333.5 189.5,332.0 190.5,330.0 190.5,327.0 190.0,324.5 188.5,323.0 187.0,321.5 185.0,320.5 182.0,320.5 179.5,321.0 178.0,322.5 176.5,324.0 175.5,326.0 175.5,329.0 176.0,331.5 177.0,333.5 179.0,334.5 181.0,335.5 184.0,335.5 186.5,335.0"/>
<polygon fill="rgb(147,153,154)" points="289.0,347.5 286.0,347.5 283.0,347.5 280.0,347.5 277.0,347.5 275.0,346.5 272.0,346.5 269.0,346.5 267.0,345.5 264.0,345.5 263.5,343.0 263.5,340.0 263.0,337.5 262.5,335.0 261.5,333.0 260.5,331.0 259.0,329.5 258.0,327.5 256.5,326.0 255.0,324.5 253.0,323.5 251.0,322.5 249.0,321.5 247.0,320.5 245.0,319.5 242.0,319.5 239.0,319.5 236.0,319.5 233.5,320.0 231.0,320.5 229.0,321.5 227.0,322.5 225.5,324.0 223.5,325.0 222.0,326.5 220.5,328.0 218.5,328.0 217.0,326.5 215.0,325.5 213.0,324.5 211.5,323.0 210.0,321.5 208.0,320.5 206.5,319.0 205.0,317.5 203.5,316.0 201.5,315.0 200.0,313.5 198.5,312.0 197.0,310.5 195.5,309.0 194.5,307.0 193.0,305.5 191.5,304.0 190.0,302.5 189.0,300.5 187.5,299.0 186.5,297.0 185.0,295.5 184.0,293.5 182.5,292.0 183.5,290.0 185.0,288.5 186.5,287.0 187.5,285.0 188.5,283.0 189.5,281.0 190.5,279.0 191.5,277.0 191.5,274.0 191.5,271.0 191.5,268.0 191.0,265.5 190.5,263.0 189.5,261.0 188.5,259.0 187.0,257.5 186.0,255.5 184.5,254.0 183.0,252.5 181.0,251.5 179.0,250.5 177.0,249.5 175.0,248.5 173.0,247.5 170.0,247.5 167.0,247.5 165.5,246.0 165.0,243.5 164.5,241.0 164.5,238.0 164.5,235.0 163.5,233.0 163.5,230.0 163.5,227.0 163.5,224.0 164.0,221.5 164.5,219.0 164.5,216.0 164.5,213.0 165.0,210.5 165.5,208.0 165.5,205.0 166.5,203.0 168.0,201.5 170.0,200.5 173.0,200.5 175.5,200.0 178.0,199.5 181.0,199.5 184.0,199.5 186.0,198.5 189.0,198.5 192.0,198.5 195.0,198.5 198.0,198.5 200.5,199.0 203.0,199.5 206.0,199.5 209.0,199.5 211.0,200.5 214.0,200.5 215.5,202.0 215.5,205.0 216.5,207.0 217.5,209.0 218.5,211.0 219.5,213.0 220.5,215.0 222.0,216.5 223.5,218.0 225.5,219.0 227.0,220.5 229.0,221.5 231.0,222.5 233.5,223.0 236.0,223.5 239.0,223.5 242.0,223.5 245.0,223.5 247.0,222.5 249.0,221.5 251.0,220.5 253.0,219.5 255.0,218.5 257.0,217.5 259.0,218.5 260.5,220.0 262.0,221.5 264.0,222.5 266.0,223.5 267.5,225.0 269.0,226.5 270.5,228.0 272.5,229.0 274.0,230.5 275.5,232.0 277.0,233.5 278.5,235.0 280.0,236.5 281.5,238.0 282.5,240.0 284.0,241.5 285.5,243.0 287.0,244.5 288.0,246.5 289.5,248.0 290.5,250.0 292.0,251.5 293.0,253.5 293.0,255.5 292.0,257.5 290.5,259.0 289.5,261.0 288.5,263.0 288.0,265.5 287.5,268.0 287.5,271.0 287.5,274.0 287.5,277.0 288.5,279.0 289.5,281.0 290.5,283.0 291.5,285.0 292.5,287.0 294.0,288.5 295.5,290.0 297.5,291.0 299.0,292.5 301.0,293.5 303.0,294.5 305.5,295.0 308.0,295.5 310.5,296.0 310.5,299.0 311.0,301.5 311.5,304.0 311.5,307.0 311.5,310.0 312.5,312.0 312.5,315.0 312.5,318.0 312.5,321.0 312.5,324.0 312.0,326.5 311.5,329.0 311.5,332.0 311.5,335.0 310.5,337.0 310.5,340.0 309.5,342.0 309.0,344.5 306.0,344.5 304.0,345.5 301.0,345.5 299.0,346.5 296.0,346.5 293.0,346.5 290.0,346.5"/>
<polygon fill="rgb(147,153,154)" points="184.5,223.0 187.0,222.5 188.5,221.0 190.0,219.5 190.5,217.0 191.5,215.0 190.5,213.0 190.0,210.5 188.5,209.0 187.0,207.5 185.0,206.5 182.0,206.5 180.0,207.5 178.0,208.5 176.5,210.0 175.5,212.0 174.5,214.0 174.5,217.0 175.5,219.0 177.0,220.5 178.5,222.0 181.0,222.5 183.0,223.5"/>
<polygon fill="rgb(147,153,154)" points="247.5,311.0 250.0,310.5 252.0,309.5 254.5,309.0 256.5,308.0 258.5,307.0 260.5,306.0 262.0,304.5 264.0,303.5 265.5,302.0 267.0,300.5 268.5,299.0 270.0,297.5 271.5,296.0 272.5,294.0 274.0,292.5 275.0,290.5 276.0,288.5 277.0,286.5 277.5,284.0 278.5,282.0 279.0,279.5 279.5,277.0 279.5,274.0 279.5,271.0 279.5,268.0 279.5,265.0 278.5,263.0 278.0,260.5 277.0,258.5 275.5,257.0 274.0,255.5 272.0,254.5 269.0,254.5 267.0,255.5 266.0,253.5 264.5,252.0 263.5,250.0 262.0,248.5 260.5,247.0 258.5,246.0 257.0,244.5 255.5,243.0 256.5,241.0 255.5,239.0 255.0,236.5 253.5,235.0 252.0,233.5 250.0,232.5 247.0,232.5 245.0,231.5 242.0,231.5 239.0,231.5 236.0,231.5 233.0,231.5 231.0,232.5 228.0,232.5 226.0,233.5 224.0,234.5 222.0,235.5 220.0,236.5 218.0,237.5 216.0,238.5 214.5,240.0 213.0,241.5 211.5,243.0 210.0,244.5 208.5,246.0 207.0,247.5 206.0,249.5 204.5,251.0 203.5,253.0 202.5,255.0 201.5,257.0 201.0,259.5 200.5,262.0 199.5,264.0 199.5,267.0 199.5,270.0 199.5,273.0 199.5,276.0 199.5,279.0 200.5,281.0 201.0,283.5 201.5,286.0 202.5,288.0 203.5,290.0 204.5,292.0 206.0,293.5 207.0,295.5 208.5,297.0 210.0,298.5 211.5,300.0 213.0,301.5 214.5,303.0 216.0,304.5 218.0,305.5 220.0,306.5 222.0,307.5 224.0,308.5 226.0,309.5 228.0,310.5 231.0,310.5 233.0,311.5 236.0,311.5 239.0,311.5 242.0,311.5 245.0,311.5 247.5,311.0"/>
<polygon fill="rgb(147,153,154)" points="298.5,336.0 300.5,335.0 302.0,333.5 303.5,332.0 304.5,330.0 304.5,327.0 303.5,325.0 302.5,323.0 301.0,321.5 299.0,320.5 297.0,319.5 294.5,320.0 292.0,320.5 290.5,322.0 289.0,323.5 288.5,326.0 287.5,328.0 288.5,330.0 289.0,332.5 290.5,334.0 292.0,335.5 294.0,336.5 297.0,336.5"/>
<polygon fill="rgb(222,230,231)" points="245.0,479.5 242.0,479.5 239.0,479.5 236.0,479.5 234.0,478.5 231.0,478.5 228.0,478.5 225.0,478.5 222.0,478.5 219.0,478.5 217.0,477.5 214.0,477.5 211.0,477.5 209.0,476.5 206.0,476.5 203.5,476.0 201.0,475.5 198.5,475.0 196.0,474.5 193.5,474.0 191.0,473.5 189.0,472.5 186.0,472.5 184.0,471.5 182.0,470.5 179.0,470.5 177.0,469.5 175.0,468.5 172.5,468.0 170.0,467.5 168.0,466.5 166.0,465.5 164.0,464.5 161.5,464.0 159.5,463.0 157.5,462.0 155.0,461.5 153.0,460.5 151.0,459.5 149.0,458.5 147.0,457.5 145.0,456.5 143.0,455.5 141.0,454.5 139.0,453.5 137.5,452.0 135.5,451.0 133.5,450.0 131.5,449.0 130.0,447.5 128.0,446.5 126.0,445.5 124.5,444.0 122.5,443.0 121.0,441.5 119.0,440.5 117.0,439.5 115.5,438.0 114.0,436.5 112.0,435.5 110.5,434.0 109.0,432.5 107.0,431.5 105.5,430.0 104.0,428.5 102.0,427.5 100.0,426.5 97.0,426.5 95.0,427.5 93.0,428.5 91.5,429.0 90.0,427.5 88.5,426.0 87.0,424.5 85.5,423.0 84.0,421.5 82.5,420.0 82.0,418.5 83.0,416.5 84.0,414.5 84.5,412.0 83.5,410.0 82.5,408.0 81.5,406.0 80.0,404.5 79.0,402.5 77.5,401.0 76.0,399.5 74.5,398.0 73.5,396.0 72.0,394.5 71.0,392.5 69.5,391.0 68.5,389.0 67.5,387.0 66.0,385.5 65.0,383.5 63.5,382.0 62.5,380.0 61.5,378.0 60.5,376.0 59.5,374.0 58.0,372.5 57.0,370.5 56.0,368.5 55.0,366.5 54.0,364.5 53.0,362.5 52.0,360.5 51.0,358.5 50.0,356.5 49.5,354.0 48.5,352.0 47.5,350.0 46.5,348.0 45.5,346.0 44.5,344.0 44.0,341.5 43.5,339.0 42.5,337.0 41.5,335.0 41.0,332.5 40.5,330.0 39.5,328.0 39.0,325.5 38.5,323.0 37.5,321.0 37.5,318.0 36.5,316.0 36.5,313.0 35.5,311.0 35.5,308.0 34.5,306.0 34.5,303.0 34.0,300.5 33.5,298.0 33.5,295.0 33.0,292.5 32.5,290.0 32.5,287.0 32.5,284.0 32.5,281.0 32.5,278.0 31.5,276.0 31.5,273.0 31.5,270.0 32.0,267.5 32.5,265.0 32.5,262.0 32.5,259.0 32.5,256.0 32.5,253.0 33.0,250.5 33.5,248.0 33.5,245.0 34.0,242.5 34.5,240.0 34.5,237.0 35.5,235.0 35.5,232.0 36.5,230.0 36.5,227.0 37.5,225.0 37.5,222.0 38.5,220.0 39.0,217.5 39.5,215.0 40.5,213.0 41.0,210.5 41.5,208.0 42.5,206.0 43.5,204.0 44.0,201.5 45.0,199.5 45.5,197.0 46.5,195.0 47.5,193.0 48.5,191.0 49.5,189.0 50.0,186.5 51.0,184.5 52.0,182.5 53.0,180.5 54.0,178.5 55.0,176.5 56.0,174.5 57.0,172.5 58.0,170.5 59.5,169.0 60.5,167.0 61.5,165.0 62.5,163.0 63.5,161.0 65.0,159.5 66.0,157.5 67.5,156.0 68.5,154.0 69.5,152.0 71.0,150.5 72.5,149.0 73.5,147.0 75.0,145.5 76.0,143.5 77.5,142.0 78.5,140.0 80.0,138.5 81.5,137.0 83.0,135.5 84.0,133.5 85.5,132.0 87.0,130.5 88.5,129.0 90.0,127.5 91.5,126.0 93.0,124.5 94.5,123.0 96.0,121.5 97.5,120.0 99.0,118.5 100.5,117.0 102.0,115.5 104.0,114.5 105.5,113.0 107.0,111.5 109.0,110.5 110.5,109.0 112.0,107.5 114.0,106.5 115.5,105.0 117.0,103.5 119.0,102.5 121.0,101.5 122.5,100.0 124.0,98.5 126.0,97.5 128.0,96.5 130.0,95.5 131.5,94.0 133.5,93.0 135.5,92.0 137.0,90.5 139.0,89.5 141.0,88.5 143.0,87.5 145.0,86.5 147.0,85.5 149.0,84.5 151.0,83.5 153.0,82.5 155.0,81.5 157.0,80.5 159.5,80.0 161.5,79.0 164.0,78.5 166.0,77.5 168.0,76.5 170.0,75.5 172.5,75.0 175.0,74.5 177.0,73.5 179.0,72.5 181.5,72.0 184.0,71.5 186.0,70.5 189.0,70.5 191.0,69.5 193.5,69.0 196.0,68.5 198.5,68.0 201.0,67.5 203.5,67.0 206.0,66.5 209.0,66.5 211.0,65.5 214.0,65.5 217.0,65.5 219.0,64.5 222.0,64.5 225.0,64.5 228.0,64.5 231.0,64.5 231.5,67.0 231.5,70.0 231.5,73.0 231.5,76.0 231.5,79.0 231.5,82.0 231.5,85.0 231.5,88.0 231.5,91.0 231.5,94.0 231.5,97.0 231.5,100.0 231.5,103.0 231.5,106.0 231.5,109.0 231.5,112.0 231.5,115.0 231.5,118.0 231.5,121.0 232.0,123.5 233.5,125.0 235.0,126.5 237.0,127.5 240.0,127.5 243.0,127.5 245.0,128.5 248.0,128.5 251.0,128.5 254.0,128.5 256.5,129.0 259.0,129.5 262.0,129.5 264.0,130.5 267.0,130.5 269.0,131.5 272.0,131.5 274.0,132.5 277.0,132.5 279.0,133.5 281.0,134.5 283.5,135.0 286.0,135.5 288.0,136.5 291.0,136.5 293.0,135.5 295.0,134.5 296.0,132.5 298.0,131.5 300.0,132.5 302.0,133.5 304.0,134.5 306.0,135.5 308.0,136.5 310.0,137.5 310.5,140.0 309.5,142.0 310.5,144.0 311.5,146.0 312.5,148.0 314.5,149.0 316.0,150.5 318.0,151.5 320.0,152.5 321.5,154.0 323.5,155.0 325.0,156.5 327.0,157.5 328.5,159.0 330.0,160.5 332.0,161.5 333.5,163.0 335.0,164.5 336.5,166.0 338.0,167.5 339.5,169.0 341.5,170.0 343.0,171.5 344.0,173.5 345.5,175.0 347.0,176.5 348.5,178.0 350.0,179.5 351.0,181.5 352.5,183.0 354.0,184.5 355.0,186.5 356.5,188.0 357.5,190.0 359.0,191.5 360.0,193.5 361.5,195.0 362.5,197.0 363.5,199.0 364.5,201.0 365.5,203.0 366.5,205.0 367.5,207.0 368.5,209.0 369.5,211.0 370.5,213.0 371.5,215.0 372.5,217.0 373.5,219.0 374.0,221.5 375.0,223.5 375.5,226.0 376.5,228.0 377.0,230.5 377.5,233.0 378.5,235.0 379.0,237.5 379.5,240.0 380.5,242.0 380.5,245.0 381.0,247.5 381.5,250.0 381.5,253.0 382.5,255.0 382.5,258.0 382.5,261.0 382.5,264.0 383.0,266.5 383.5,269.0 383.5,272.0 383.5,275.0 385.0,276.5 386.5,278.0 388.0,279.5 391.0,279.5 394.0,279.5 397.0,279.5 400.0,279.5 403.0,279.5 406.0,279.5 409.0,279.5 412.0,279.5 415.0,279.5 418.0,279.5 421.0,279.5 424.0,279.5 427.0,279.5 430.0,279.5 433.0,279.5 436.0,279.5 439.0,279.5 442.0,279.5 445.0,279.5 448.0,279.5 451.0,279.5 454.0,279.5 455.5,281.0 455.5,284.0 454.5,286.0 454.5,289.0 454.5,292.0 454.5,295.0 452.0,295.5 449.5,296.0 448.0,297.5 446.5,299.0 445.5,301.0 444.5,303.0 444.5,306.0 443.5,308.0 443.5,311.0 443.0,313.5 442.5,316.0 441.5,318.0 441.5,321.0 440.5,323.0 440.0,325.5 439.5,328.0 438.5,330.0 438.0,332.5 437.5,335.0 436.5,337.0 435.5,339.0 435.0,341.5 434.5,344.0 433.5,346.0 432.5,348.0 431.5,350.0 430.5,352.0 430.0,354.5 429.0,356.5 428.0,358.5 427.0,360.5 426.5,363.0 425.5,365.0 424.5,367.0 423.0,368.5 422.0,370.5 421.0,372.5 420.0,374.5 419.0,376.5 417.5,378.0 416.5,380.0 415.5,382.0 414.5,384.0 413.0,385.5 412.0,387.5 410.5,389.0 409.5,391.0 408.5,393.0 407.0,394.5 405.5,396.0 404.5,398.0 403.0,399.5 401.5,401.0 400.5,403.0 399.0,404.5 397.5,406.0 396.5,408.0 395.0,409.5 393.5,411.0 392.0,412.5 390.5,414.0 389.0,415.5 387.5,417.0 386.0,418.5 384.5,420.0 383.0,421.5 381.5,423.0 380.0,424.5 378.5,426.0 377.0,427.5 375.0,428.5 373.5,430.0 372.0,431.5 370.0,432.5 368.5,434.0 367.0,435.5 365.0,436.5 363.5,438.0 362.0,439.5 360.0,440.5 358.0,441.5 356.5,443.0 355.0,444.5 353.0,445.5 351.0,446.5 349.0,447.5 347.5,449.0 345.5,450.0 343.5,451.0 342.0,452.5 340.0,453.5 338.0,454.5 336.0,455.5 334.0,456.5 332.0,457.5 330.0,458.5 328.0,459.5 326.0,460.5 324.0,461.5 322.0,462.5 319.5,463.0 317.5,464.0 315.0,464.5 313.0,465.5 311.0,466.5 309.0,467.5 306.5,468.0 304.0,468.5 302.0,469.5 300.0,470.5 297.0,470.5 295.0,471.5 293.0,472.5 290.0,472.5 288.0,473.5 285.5,474.0 283.0,474.5 280.5,475.0 278.0,475.5 275.5,476.0 273.0,476.5 270.0,476.5 268.0,477.5 265.0,477.5 262.0,477.5 260.0,478.5 257.0,478.5 254.0,478.5 251.0,478.5 248.0,478.5 245.5,479.0"/>
<polygon fill="rgb(222,230,231)" points="296.0,87.5 294.0,86.5 291.5,86.0 290.0,84.5 288.5,83.0 288.0,80.5 288.0,78.5 288.5,76.0 290.0,74.5 291.5,73.0 294.0,72.5 296.0,71.5 298.0,72.5 300.0,73.5 301.5,75.0 302.5,77.0 303.5,79.0 302.5,81.0 302.0,83.5 300.5,85.0 299.0,86.5 296.5,87.0"/>
<polygon fill="rgb(222,230,231)" points="172.5,109.0 174.5,108.0 175.5,106.0 176.5,104.0 177.5,102.0 177.0,99.5 176.0,97.5 175.0,95.5 173.0,94.5 171.0,93.5 168.0,93.5 165.5,94.0 164.0,95.5 162.5,97.0 161.5,99.0 160.5,101.0 161.0,103.5 162.0,105.5 163.0,107.5 165.0,108.5 167.0,109.5 170.0,109.5 172.5,109.0"/>
<polygon fill="rgb(222,230,231)" points="183.5,139.0 185.5,138.0 187.5,137.0 188.5,135.0 189.5,133.0 189.5,130.0 188.5,128.0 187.5,126.0 186.0,124.5 184.0,123.5 182.0,122.5 179.5,123.0 177.5,124.0 175.5,125.0 174.5,127.0 173.5,129.0 173.5,132.0 174.0,134.5 175.0,136.5 176.5,138.0 179.0,138.5 181.0,139.5 183.5,139.0"/>
<polygon fill="rgb(222,230,231)" points="112.5,149.0 114.5,148.0 116.0,146.5 117.0,144.5 117.5,142.0 117.5,139.0 116.5,137.0 115.0,135.5 113.0,134.5 111.0,133.5 108.0,133.5 105.5,134.0 104.0,135.5 102.5,137.0 101.5,139.0 101.5,142.0 101.5,145.0 103.0,146.5 104.5,148.0 106.5,149.0 109.0,149.5 112.0,149.5"/>
<polygon fill="rgb(222,230,231)" points="253.5,399.0 256.0,398.5 259.0,398.5 261.0,397.5 264.0,397.5 266.0,396.5 269.0,396.5 271.0,395.5 274.0,395.5 276.0,394.5 278.0,393.5 280.5,393.0 283.0,392.5 285.0,391.5 287.0,390.5 289.0,389.5 291.0,388.5 293.5,388.0 295.5,387.0 297.5,386.0 299.5,385.0 301.5,384.0 303.0,382.5 305.0,381.5 307.0,380.5 309.0,379.5 310.5,378.0 312.5,377.0 314.0,375.5 316.0,374.5 317.5,373.0 319.5,372.0 321.0,370.5 322.5,369.0 324.0,367.5 326.0,366.5 327.5,365.0 329.0,363.5 330.5,362.0 332.0,360.5 333.5,359.0 335.0,357.5 336.0,355.5 337.5,354.0 339.0,352.5 340.5,351.0 341.5,349.0 343.0,347.5 344.0,345.5 345.5,344.0 346.5,342.0 347.5,340.0 349.0,338.5 350.0,336.5 351.0,334.5 352.5,333.0 353.5,331.0 354.5,329.0 355.5,327.0 356.5,325.0 357.0,322.5 358.0,320.5 359.0,318.5 359.5,316.0 360.5,314.0 361.5,312.0 362.0,309.5 362.5,307.0 363.5,305.0 364.0,302.5 364.5,300.0 365.0,297.5 365.5,295.0 366.0,292.5 366.5,290.0 366.5,287.0 367.5,285.0 367.5,282.0 367.5,279.0 367.5,276.0 367.5,273.0 367.5,270.0 367.5,267.0 367.5,264.0 367.5,261.0 367.5,258.0 366.5,256.0 366.5,253.0 366.0,250.5 365.5,248.0 365.0,245.5 364.5,243.0 364.0,240.5 363.5,238.0 362.5,236.0 362.0,233.5 361.5,231.0 360.5,229.0 359.5,227.0 359.0,224.5 358.0,222.5 357.5,220.0 356.5,218.0 355.5,216.0 354.5,214.0 353.5,212.0 352.5,210.0 351.5,208.0 350.0,206.5 349.0,204.5 348.0,202.5 346.5,201.0 345.5,199.0 344.5,197.0 343.0,195.5 341.5,194.0 340.5,192.0 339.0,190.5 337.5,189.0 336.5,187.0 335.0,185.5 333.5,184.0 332.0,182.5 330.5,181.0 329.0,179.5 327.5,178.0 326.0,176.5 324.5,175.0 322.5,174.0 321.0,172.5 319.5,171.0 318.0,169.5 316.0,168.5 314.5,167.0 312.5,166.0 311.0,164.5 309.0,163.5 307.0,162.5 305.0,161.5 303.5,160.0 301.5,159.0 299.5,158.0 297.5,157.0 295.5,156.0 293.5,155.0 291.5,154.0 289.0,153.5 287.0,152.5 285.0,151.5 283.0,150.5 280.5,150.0 278.0,149.5 276.0,148.5 274.0,147.5 271.0,147.5 269.0,146.5 266.5,146.0 264.0,145.5 261.5,145.0 259.0,144.5 256.0,144.5 254.0,143.5 251.0,143.5 248.0,143.5 245.0,143.5 242.0,143.5 239.0,143.5 236.0,143.5 233.0,143.5 230.0,143.5 227.0,143.5 225.0,144.5 222.0,144.5 219.0,144.5 217.0,145.5 214.0,145.5 212.0,146.5 209.0,146.5 207.0,147.5 204.5,148.0 202.0,148.5 200.0,149.5 198.0,150.5 195.5,151.0 193.0,151.5 191.0,152.5 189.0,153.5 187.0,154.5 185.0,155.5 183.0,156.5 181.0,157.5 179.0,158.5 177.0,159.5 175.0,160.5 173.0,161.5 171.5,163.0 169.5,164.0 168.0,165.5 166.0,166.5 164.5,168.0 162.5,169.0 161.0,170.5 159.5,172.0 158.5,174.0 158.5,177.0 159.5,179.0 160.5,181.0 159.0,182.5 157.5,184.0 155.5,185.0 154.0,186.5 152.5,188.0 151.5,190.0 150.0,191.5 148.5,192.0 146.5,191.0 144.0,190.5 141.5,191.0 139.5,192.0 138.0,193.5 136.5,195.0 135.5,197.0 134.0,198.5 133.0,200.5 131.5,202.0 130.5,204.0 129.5,206.0 128.5,208.0 127.5,210.0 126.0,211.5 125.0,213.5 124.0,215.5 123.0,217.5 122.5,220.0 121.5,222.0 120.5,224.0 119.5,226.0 118.5,228.0 118.0,230.5 117.5,233.0 116.5,235.0 115.5,237.0 115.5,240.0 114.5,242.0 114.0,244.5 113.5,247.0 113.5,250.0 112.5,252.0 112.5,255.0 112.0,257.5 111.5,260.0 111.5,263.0 111.5,266.0 111.5,269.0 111.5,272.0 111.5,275.0 111.5,278.0 111.5,281.0 111.5,284.0 112.5,286.0 112.5,289.0 112.5,292.0 113.5,294.0 113.5,297.0 114.5,299.0 114.5,302.0 115.5,304.0 116.0,306.5 116.5,309.0 117.5,311.0 118.5,313.0 119.0,315.5 119.5,318.0 120.5,320.0 121.5,322.0 122.5,324.0 123.5,326.0 124.5,328.0 125.5,330.0 126.5,332.0 127.5,334.0 128.5,336.0 129.5,338.0 131.0,339.5 132.0,341.5 133.5,343.0 134.5,345.0 135.5,347.0 137.0,348.5 138.5,350.0 139.5,352.0 141.0,353.5 142.5,355.0 143.5,357.0 145.0,358.5 146.5,360.0 148.0,361.5 149.5,363.0 151.0,364.5 152.5,366.0 154.0,367.5 156.0,368.5 157.5,370.0 159.0,371.5 161.0,372.5 162.5,374.0 164.0,375.5 166.0,376.5 168.0,377.5 169.5,379.0 171.5,380.0 173.0,381.5 175.0,382.5 177.0,383.5 179.0,384.5 181.0,385.5 183.0,386.5 185.0,387.5 187.0,388.5 189.0,389.5 191.0,390.5 193.5,391.0 195.5,392.0 198.0,392.5 200.0,393.5 202.0,394.5 204.5,395.0 207.0,395.5 209.0,396.5 212.0,396.5 214.0,397.5 217.0,397.5 219.0,398.5 222.0,398.5 225.0,398.5 227.0,399.5 230.0,399.5 233.0,399.5 236.0,399.5 239.0,399.5 242.0,399.5 245.0,399.5 248.0,399.5 251.0,399.5 253.5,399.0"/>
<polygon fill="rgb(222,230,231)" points="134.5,172.0 136.5,171.0 138.0,169.5 139.5,168.0 140.5,166.0 140.5,163.0 139.5,161.0 138.5,159.0 137.0,157.5 135.0,156.5 133.0,155.5 130.5,156.0 128.0,156.5 126.5,158.0 125.0,159.5 124.5,162.0 123.5,164.0 124.5,166.0 125.0,168.5 126.5,170.0 128.0,171.5 130.0,172.5 133.0,172.5"/>
<polygon fill="rgb(222,230,231)" points="71.5,209.0 73.5,208.0 75.5,207.0 76.5,205.0 77.5,203.0 77.5,200.0 77.0,197.5 75.5,196.0 74.0,194.5 72.0,193.5 70.0,192.5 67.5,193.0 65.5,194.0 63.5,195.0 62.5,197.0 61.5,199.0 61.5,202.0 62.0,204.5 63.0,206.5 65.0,207.5 67.0,208.5 69.0,209.5 71.5,209.0"/>
<polygon fill="rgb(222,230,231)" points="102.5,221.0 104.0,219.5 105.5,218.0 106.5,216.0 107.5,214.0 107.0,211.5 106.5,209.0 105.0,207.5 103.0,206.5 101.0,205.5 98.0,205.5 95.5,206.0 93.5,207.0 92.5,209.0 91.5,211.0 90.5,213.0 91.0,215.5 92.0,217.5 93.5,219.0 95.0,220.5 97.0,221.5 100.0,221.5 102.5,221.0"/>
<polygon fill="rgb(222,230,231)" points="432.0,231.5 430.0,230.5 427.5,230.0 426.0,228.5 424.5,227.0 424.0,224.5 424.0,222.5 424.5,220.0 426.0,218.5 427.5,217.0 430.0,216.5 432.0,215.5 434.0,216.5 436.0,217.5 437.5,219.0 438.5,221.0 439.5,223.0 438.5,225.0 438.0,227.5 436.5,229.0 435.0,230.5 432.5,231.0"/>
<polygon fill="rgb(222,230,231)" points="59.5,279.0 61.0,277.5 62.5,276.0 63.5,274.0 63.5,271.0 63.5,268.0 62.0,266.5 60.5,265.0 59.0,263.5 56.0,263.5 53.0,263.5 51.0,264.5 49.5,266.0 48.0,267.5 47.5,270.0 47.5,273.0 48.0,275.5 49.5,277.0 51.0,278.5 53.0,279.5 56.0,279.5 59.0,279.5"/>
<polygon fill="rgb(222,230,231)" points="90.5,279.0 92.5,278.0 94.0,276.5 95.0,274.5 95.5,272.0 95.5,269.0 94.5,267.0 93.0,265.5 91.0,264.5 89.0,263.5 86.0,263.5 84.0,264.5 82.0,265.5 80.5,267.0 79.5,269.0 79.5,272.0 80.0,274.5 81.0,276.5 82.5,278.0 84.5,279.0 87.0,279.5 90.0,279.5"/>
<polygon fill="rgb(222,230,231)" points="102.5,337.0 104.5,336.0 106.0,334.5 106.5,332.0 107.5,330.0 107.0,327.5 106.0,325.5 105.0,323.5 103.0,322.5 101.0,321.5 98.0,321.5 96.0,322.5 94.0,323.5 92.5,325.0 91.5,327.0 90.5,329.0 91.0,331.5 91.5,334.0 93.0,335.5 95.0,336.5 97.0,337.5 100.0,337.5 102.5,337.0"/>
<polygon fill="rgb(222,230,231)" points="383.5,337.0 385.5,336.0 386.5,334.0 387.5,332.0 388.5,330.0 388.0,327.5 387.0,325.5 385.5,324.0 384.0,322.5 382.0,321.5 379.0,321.5 376.5,322.0 375.0,323.5 373.5,325.0 372.5,327.0 371.5,329.0 372.0,331.5 372.5,334.0 374.0,335.5 376.0,336.5 378.0,337.5 381.0,337.5 383.5,337.0"/>
<polygon fill="rgb(222,230,231)" points="71.5,350.0 73.5,349.0 75.5,348.0 76.5,346.0 77.5,344.0 77.5,341.0 77.0,338.5 76.0,336.5 74.5,335.0 72.5,334.0 70.0,333.5 67.0,333.5 65.0,334.5 63.5,336.0 62.5,338.0 61.5,340.0 61.5,343.0 62.0,345.5 63.0,347.5 65.0,348.5 67.0,349.5 69.0,350.5 71.5,350.0"/>
<polygon fill="rgb(222,230,231)" points="411.5,350.0 413.5,349.0 415.0,347.5 416.5,346.0 417.5,344.0 417.5,341.0 417.0,338.5 416.0,336.5 414.0,335.5 412.0,334.5 410.0,333.5 407.5,334.0 405.5,335.0 403.5,336.0 402.5,338.0 401.5,340.0 401.5,343.0 402.0,345.5 403.5,347.0 405.0,348.5 407.0,349.5 409.0,350.5 411.5,350.0"/>
<polygon fill="rgb(222,230,231)" points="134.5,387.0 136.5,386.0 138.0,384.5 139.5,383.0 140.5,381.0 140.5,378.0 139.5,376.0 138.5,374.0 137.0,372.5 135.0,371.5 133.0,370.5 130.0,370.5 128.0,371.5 126.5,373.0 125.0,374.5 124.0,376.5 123.5,379.0 124.0,381.5 125.0,383.5 126.5,385.0 128.0,386.5 130.0,387.5 133.0,387.5"/>
<polygon fill="rgb(222,230,231)" points="348.5,387.0 351.0,386.5 352.5,385.0 354.0,383.5 354.5,381.0 355.5,379.0 354.5,377.0 354.0,374.5 352.5,373.0 351.0,371.5 349.0,370.5 346.0,370.5 344.0,371.5 342.0,372.5 340.5,374.0 339.5,376.0 338.5,378.0 338.5,381.0 339.5,383.0 341.0,384.5 342.5,386.0 345.0,386.5 347.0,387.5"/>
<polygon fill="rgb(222,230,231)" points="113.5,409.0 115.0,407.5 116.5,406.0 117.5,404.0 117.5,401.0 117.0,398.5 116.0,396.5 114.5,395.0 112.5,394.0 110.0,393.5 107.0,393.5 105.0,394.5 103.5,396.0 102.0,397.5 101.5,400.0 101.5,403.0 102.0,405.5 103.0,407.5 105.0,408.5 107.0,409.5 110.0,409.5 113.0,409.5"/>
<polygon fill="rgb(222,230,231)" points="373.5,409.0 375.0,407.5 376.5,406.0 377.5,404.0 377.5,401.0 377.5,398.0 376.0,396.5 374.5,395.0 372.5,394.0 370.0,393.5 367.0,393.5 365.0,394.5 363.5,396.0 362.5,398.0 361.5,400.0 361.5,403.0 362.5,405.0 363.5,407.0 365.0,408.5 367.0,409.5 370.0,409.5 373.0,409.5"/>
<polygon fill="rgb(222,230,231)" points="183.5,420.0 185.5,419.0 187.5,418.0 188.5,416.0 189.5,414.0 189.5,411.0 189.0,408.5 187.5,407.0 186.0,405.5 184.0,404.5 182.0,403.5 179.5,404.0 177.0,404.5 175.5,406.0 174.5,408.0 173.5,410.0 172.5,412.0 173.5,414.0 174.5,416.0 175.5,418.0 177.0,419.5 179.5,420.0 182.0,420.5"/>
<polygon fill="rgb(222,230,231)" points="299.5,420.0 301.5,419.0 303.5,418.0 304.5,416.0 305.5,414.0 305.5,411.0 305.0,408.5 304.0,406.5 302.5,405.0 300.0,404.5 298.0,403.5 295.5,404.0 293.5,405.0 292.0,406.5 290.5,408.0 289.5,410.0 289.5,413.0 290.5,415.0 291.5,417.0 293.0,418.5 295.0,419.5 297.0,420.5 299.5,420.0"/>
<polygon fill="rgb(222,230,231)" points="242.5,431.0 244.5,430.0 246.0,428.5 247.0,426.5 247.5,424.0 247.5,421.0 246.5,419.0 245.0,417.5 243.0,416.5 241.0,415.5 238.0,415.5 236.0,416.5 234.0,417.5 232.5,419.0 231.5,421.0 231.5,424.0 232.0,426.5 233.0,428.5 234.5,430.0 236.5,431.0 239.0,431.5 242.0,431.5"/>
<polygon fill="rgb(222,230,231)" points="172.5,449.0 174.5,448.0 176.0,446.5 177.0,444.5 177.5,442.0 177.5,439.0 176.5,437.0 175.0,435.5 173.0,434.5 171.0,433.5 168.0,433.5 165.5,434.0 163.5,435.0 162.5,437.0 161.5,439.0 160.5,441.0 161.0,443.5 162.0,445.5 163.0,447.5 165.0,448.5 167.0,449.5 170.0,449.5 172.5,449.0"/>
<polygon fill="rgb(222,230,231)" points="313.5,449.0 315.5,448.0 316.5,446.0 317.5,444.0 318.5,442.0 318.0,439.5 317.0,437.5 316.0,435.5 314.0,434.5 312.0,433.5 309.0,433.5 306.5,434.0 304.5,435.0 303.5,437.0 302.0,438.5 301.5,441.0 301.5,444.0 302.5,446.0 304.0,447.5 306.0,448.5 308.0,449.5 311.0,449.5 313.5,449.0"/>
<polygon fill="rgb(222,230,231)" points="243.5,463.0 245.0,461.5 246.5,460.0 247.5,458.0 247.5,455.0 247.5,452.0 246.0,450.5 244.5,449.0 243.0,447.5 240.0,447.5 237.0,447.5 235.0,448.5 233.5,450.0 232.0,451.5 231.5,454.0 231.5,457.0 232.0,459.5 233.5,461.0 235.0,462.5 237.0,463.5 240.0,463.5 243.0,463.5"/>
<polygon fill="rgb(228,92,74)" points="478.0,263.5 475.0,263.5 472.0,263.5 469.0,263.5 466.0,263.5 463.0,263.5 460.0,263.5 457.0,263.5 454.0,263.5 451.0,263.5 448.0,263.5 445.0,263.5 442.0,263.5 439.0,263.5 436.0,263.5 433.0,263.5 430.0,263.5 427.0,263.5 424.0,263.5 421.0,263.5 418.0,263.5 415.0,263.5 412.0,263.5 409.0,263.5 406.0,263.5 403.0,263.5 400.0,263.5 399.5,261.0 399.5,258.0 399.5,255.0 398.5,253.0 398.5,250.0 398.5,247.0 397.5,245.0 397.5,242.0 396.5,240.0 396.5,237.0 395.5,235.0 395.5,232.0 394.5,230.0 393.5,228.0 393.5,225.0 392.5,223.0 391.5,221.0 391.0,218.5 390.5,216.0 389.5,214.0 388.5,212.0 387.5,210.0 386.5,208.0 386.0,205.5 385.0,203.5 384.0,201.5 383.0,199.5 382.0,197.5 381.0,195.5 379.5,194.0 378.5,192.0 377.5,190.0 376.5,188.0 375.5,186.0 374.0,184.5 373.0,182.5 372.0,180.5 370.5,179.0 369.5,177.0 368.0,175.5 366.5,174.0 365.5,172.0 364.0,170.5 362.5,169.0 361.5,167.0 360.0,165.5 358.5,164.0 357.0,162.5 355.5,161.0 354.0,159.5 352.5,158.0 351.0,156.5 349.5,155.0 348.0,153.5 346.5,152.0 345.0,150.5 343.0,149.5 341.5,148.0 340.0,146.5 338.5,145.0 336.5,144.0 335.0,142.5 333.0,141.5 331.5,140.0 329.5,139.0 328.0,137.5 326.0,136.5 324.0,135.5 322.0,134.5 320.0,133.5 317.0,133.5 314.5,134.0 313.0,135.5 311.5,137.0 310.0,136.5 308.0,135.5 306.0,134.5 304.0,133.5 301.5,133.0 299.5,132.0 297.5,131.0 297.5,128.0 297.5,125.0 296.5,123.0 295.0,121.5 293.0,120.5 291.0,119.5 288.5,119.0 286.0,118.5 284.0,117.5 282.0,116.5 279.0,116.5 277.0,115.5 274.5,115.0 272.0,114.5 269.5,114.0 267.0,113.5 264.0,113.5 262.0,112.5 259.0,112.5 256.5,112.0 254.0,111.5 251.0,111.5 248.0,111.5 247.5,109.0 247.5,106.0 247.5,103.0 247.5,100.0 247.5,97.0 247.5,94.0 247.5,91.0 247.5,88.0 247.5,85.0 247.5,82.0 247.5,79.0 247.5,76.0 247.5,73.0 247.5,70.0 247.5,67.0 247.5,64.0 247.5,61.0 247.5,58.0 247.5,55.0 247.5,52.0 247.5,49.0 247.5,46.0 247.5,43.0 247.5,40.0 247.5,37.0 247.5,34.0 249.0,32.5 252.0,32.5 255.0,32.5 258.0,32.5 261.0,32.5 263.0,33.5 264.5,33.0 267.0,33.5 270.0,33.5 272.5,34.0 275.0,34.5 278.0,34.5 280.0,35.5 283.0,35.5 285.0,36.5 288.0,36.5 290.0,37.5 293.0,37.5 295.0,38.5 298.0,38.5 300.0,39.5 302.5,40.0 305.0,40.5 307.0,41.5 309.5,42.0 312.0,42.5 314.0,43.5 316.0,44.5 318.5,45.0 321.0,45.5 323.0,46.5 325.0,47.5 327.0,48.5 329.5,49.0 331.5,50.0 333.5,51.0 336.0,51.5 338.0,52.5 340.0,53.5 342.0,54.5 344.0,55.5 346.0,56.5 348.0,57.5 350.0,58.5 352.0,59.5 354.0,60.5 356.0,61.5 358.0,62.5 359.5,64.0 361.5,65.0 363.5,66.0 365.0,67.5 367.0,68.5 369.0,69.5 371.0,70.5 372.5,72.0 374.5,73.0 377.0,73.5 380.0,73.5 382.0,72.5 384.0,71.5 386.0,70.5 387.5,69.0 389.5,68.0 391.5,67.0 394.0,66.5 396.0,65.5 398.0,64.5 401.0,64.5 403.0,63.5 406.0,63.5 409.0,63.5 412.0,63.5 414.0,64.5 417.0,64.5 419.0,65.5 421.0,66.5 423.5,67.0 425.5,68.0 427.5,69.0 429.0,70.5 431.0,71.5 433.0,72.5 434.5,74.0 436.0,75.5 437.5,77.0 438.5,79.0 440.0,80.5 441.0,82.5 442.5,84.0 443.5,86.0 444.5,88.0 445.0,90.5 445.5,93.0 446.5,95.0 446.5,98.0 447.5,100.0 447.5,103.0 447.5,106.0 446.5,108.0 446.5,111.0 446.0,113.5 445.5,116.0 444.5,118.0 443.5,120.0 442.5,122.0 441.5,124.0 440.5,126.0 439.0,127.5 438.0,129.5 437.5,132.0 437.5,135.0 438.5,137.0 439.5,139.0 440.5,141.0 441.5,143.0 443.0,144.5 444.0,146.5 445.5,148.0 446.5,150.0 447.5,152.0 448.5,154.0 449.5,156.0 450.5,158.0 451.5,160.0 452.5,162.0 453.5,164.0 454.5,166.0 455.5,168.0 456.5,170.0 457.5,172.0 458.5,174.0 460.0,175.5 462.0,176.5 465.0,176.5 468.0,176.5 469.0,178.5 470.0,180.5 470.5,183.0 471.5,185.0 472.5,187.0 473.5,189.0 473.0,191.5 471.0,192.5 469.5,194.0 468.5,196.0 468.5,199.0 469.0,201.5 469.5,204.0 470.5,206.0 471.0,208.5 471.5,211.0 472.5,213.0 472.5,216.0 473.5,218.0 473.5,221.0 474.5,223.0 474.5,226.0 475.5,228.0 475.5,231.0 476.5,233.0 476.5,236.0 477.0,238.5 477.5,241.0 477.5,244.0 477.5,247.0 478.5,249.0 478.5,252.0 478.5,255.0 478.5,258.0 478.5,261.0 478.0,263.5"/>
<polygon fill="rgb(228,92,74)" points="301.5,103.0 304.0,102.5 306.0,101.5 308.0,100.5 310.0,99.5 311.5,98.0 313.0,96.5 314.0,94.5 315.5,93.0 316.5,91.0 317.5,89.0 318.5,87.0 319.5,85.0 319.5,82.0 319.5,79.0 319.5,76.0 319.0,73.5 318.5,71.0 317.5,69.0 316.5,67.0 315.0,65.5 314.0,63.5 312.5,62.0 310.5,61.0 309.0,59.5 307.0,58.5 305.0,57.5 303.0,56.5 301.0,55.5 298.0,55.5 295.0,55.5 292.0,55.5 289.5,56.0 287.0,56.5 285.0,57.5 283.0,58.5 281.5,60.0 279.5,61.0 278.0,62.5 276.5,64.0 275.5,66.0 274.5,68.0 273.5,70.0 272.5,72.0 271.5,74.0 271.5,77.0 271.5,80.0 271.5,83.0 272.0,85.5 272.5,88.0 273.5,90.0 274.5,92.0 275.5,94.0 277.0,95.5 278.5,97.0 280.0,98.5 282.0,99.5 284.0,100.5 286.0,101.5 288.0,102.5 290.0,103.5 293.0,103.5 296.0,103.5 299.0,103.5 301.5,103.0"/>
<polygon fill="rgb(228,92,74)" points="413.5,127.0 416.0,126.5 418.0,125.5 420.0,124.5 421.5,123.0 423.5,122.0 425.0,120.5 426.5,119.0 427.5,117.0 428.5,115.0 429.5,113.0 430.5,111.0 431.5,109.0 431.5,106.0 431.5,103.0 431.5,100.0 431.0,97.5 430.5,95.0 429.5,93.0 428.5,91.0 427.0,89.5 426.0,87.5 424.5,86.0 423.0,84.5 421.0,83.5 419.0,82.5 417.0,81.5 415.0,80.5 413.0,79.5 410.0,79.5 407.0,79.5 404.0,79.5 401.5,80.0 399.0,80.5 397.0,81.5 395.0,82.5 393.5,84.0 392.0,85.5 390.0,86.5 389.0,88.5 387.5,90.0 386.5,92.0 385.5,94.0 384.5,96.0 383.5,98.0 383.5,101.0 383.5,104.0 383.5,107.0 384.0,109.5 384.5,112.0 385.5,114.0 386.5,116.0 388.0,117.5 389.0,119.5 390.5,121.0 392.5,122.0 394.0,123.5 396.0,124.5 398.0,125.5 400.0,126.5 402.0,127.5 405.0,127.5 408.0,127.5 411.0,127.5 413.5,127.0"/>
<polygon fill="rgb(228,92,74)" points="409.5,185.0 411.5,184.0 413.0,182.5 414.5,181.0 415.0,178.5 415.0,176.5 414.5,174.0 413.5,172.0 412.5,170.0 411.0,168.5 410.0,166.5 408.5,165.0 407.5,163.0 406.5,161.0 405.5,159.0 404.0,157.5 402.5,156.0 401.5,154.0 400.5,152.0 399.0,150.5 397.5,149.0 396.5,147.0 395.0,145.5 393.5,144.0 392.5,142.0 391.0,140.5 389.5,139.0 388.0,137.5 386.5,136.0 385.0,134.5 383.5,133.0 382.5,131.0 381.0,129.5 379.0,128.5 377.5,127.0 376.0,125.5 374.5,124.0 373.0,122.5 371.5,121.0 370.0,119.5 368.0,118.5 366.5,117.0 365.0,115.5 363.0,114.5 361.5,113.0 360.0,111.5 358.0,110.5 356.5,109.0 354.5,108.0 353.0,106.5 351.0,105.5 349.5,104.0 347.5,103.0 345.5,102.0 344.0,100.5 342.0,99.5 340.0,98.5 338.0,97.5 335.0,97.5 332.5,98.0 330.5,99.0 329.0,100.5 328.0,102.5 327.5,105.0 327.5,108.0 328.5,110.0 330.0,111.5 332.0,112.5 333.5,114.0 335.5,115.0 337.5,116.0 339.0,117.5 341.0,118.5 343.0,119.5 344.5,121.0 346.0,122.5 348.0,123.5 350.0,124.5 351.5,126.0 353.0,127.5 355.0,128.5 356.5,130.0 358.0,131.5 359.5,133.0 361.5,134.0 363.0,135.5 364.5,137.0 366.0,138.5 367.5,140.0 369.0,141.5 370.5,143.0 372.0,144.5 373.5,146.0 375.0,147.5 376.5,149.0 377.5,151.0 379.0,152.5 380.5,154.0 382.0,155.5 383.0,157.5 384.5,159.0 386.0,160.5 387.0,162.5 388.5,164.0 389.5,166.0 391.0,167.5 392.0,169.5 393.5,171.0 394.5,173.0 395.5,175.0 396.5,177.0 398.0,178.5 399.0,180.5 400.0,182.5 401.5,184.0 403.5,185.0 406.0,185.5 409.0,185.5"/>
<polygon fill="rgb(228,92,74)" points="437.5,247.0 440.0,246.5 442.0,245.5 444.0,244.5 446.0,243.5 447.5,242.0 449.0,240.5 450.5,239.0 451.5,237.0 452.5,235.0 453.5,233.0 454.5,231.0 455.5,229.0 455.5,226.0 455.5,223.0 455.5,220.0 455.0,217.5 454.5,215.0 453.5,213.0 452.5,211.0 451.0,209.5 449.5,208.0 448.5,206.0 446.5,205.0 445.0,203.5 443.0,202.5 441.0,201.5 439.0,200.5 437.0,199.5 434.0,199.5 431.0,199.5 428.0,199.5 425.5,200.0 423.0,200.5 421.0,201.5 419.0,202.5 417.5,204.0 415.5,205.0 414.0,206.5 412.5,208.0 411.5,210.0 410.5,212.0 409.5,214.0 408.5,216.0 407.5,218.0 407.5,221.0 407.5,224.0 407.5,227.0 407.5,230.0 408.5,232.0 409.5,234.0 410.5,236.0 411.5,238.0 413.0,239.5 414.5,241.0 416.0,242.5 418.0,243.5 419.5,245.0 422.0,245.5 424.0,246.5 426.0,247.5 429.0,247.5 432.0,247.5 435.0,247.5 437.5,247.0"/>
</svg>